<?xml version="1.0" standalone="no"?>
<!DOCTYPE svg PUBLIC "-//W3C//DTD SVG 1.1//EN" "http://www.w3.org/Graphics/SVG/1.1/DTD/svg11.dtd" >
<svg xmlns="http://www.w3.org/2000/svg">
<metadata>Generated by IcoMoon</metadata>
<defs>
<font id="icomoon" horiz-adv-x="1024">
<font-face units-per-em="1024" ascent="960" descent="-64" />
<missing-glyph horiz-adv-x="1024" />
<glyph unicode="&#x20;" horiz-adv-x="512" d="" />
<glyph unicode="&#xe900;" glyph-name="email" d="M42.936 495.124l451.881-228.014-451.881-228.004zM977.347 41.82l-451.901 228.004 451.901 228.014zM42.936 36.321l467.2 264.038 467.21-264.038zM198.4 671.355h10.24v-246.405h-10.24zM810.916 671.355h10.24v-246.405h-10.24zM198.4 671.396h622.756v-10.24h-622.756zM345.498 663.040l167.547 98.836 167.537-98.836zM208.64 417.997l-146.074 81.244 146.074 81.234zM810.916 580.475l146.074-81.234-146.074-81.244z" />
<glyph unicode="&#xe901;" glyph-name="xmark" d="M540.672 448l221.184-221.184-28.672-28.672-221.184 221.184-221.184-221.184-28.672 28.672 221.184 221.184-221.184 221.184 28.672 28.672 221.184-221.184 221.184 221.184 28.672-28.672-221.184-221.184z" />
<glyph unicode="&#xe902;" glyph-name="plus" d="M839.68 427.52h-307.2v-307.2h-40.96v307.2h-307.2v40.96h307.2v307.2h40.96v-307.2h307.2v-40.96z" />
<glyph unicode="&#xe903;" glyph-name="expand" d="M430.080 390.636l-263.158-261.12 1.044 237.558h-38.922l-1.044-303.124h296.96v38.912h-231.444l264.202 261.12zM593.92 830.956v-38.912l237.558 1.024-260.076-263.148 27.648-27.648 261.11 264.223v-231.455h38.912v296.96z" />
<glyph unicode="&#xe904;" glyph-name="dl-return" d="M962.56 366.121c0-152.801-123.443-276.48-276.562-276.48h-543.283c-10.844 0-20.797 9.636-20.797 20.48s9.953 20.48 20.797 20.48h543.283c131.195 0 235.602 104.684 235.602 235.52 0 130.877-104.397 235.52-235.602 235.52h-526.879l219.597-125.44c7.27-3.922 11.674-12.595 10.557-20.797-1.72-13.404-19.118-21.883-30.72-15.043l-287.56 161.444c-12.718 7.035-12.718 33.915 0 40.96l287.519 161.116c9.4 5.437 22.886 1.72 28.201-7.721s1.485-22.917-8.038-28.119l-219.597-125.44h526.879c153.119 0 276.562-123.72 276.562-276.48z" />
<glyph unicode="&#xe905;" glyph-name="transgender" d="M445.44 494.080c0 28.672-7.168 57.364-21.524 81.92-4.076 7.168-13.312 10.24-20.48 6.164-7.158-4.086-10.24-13.322-6.154-20.48 11.274-20.48 17.398-44.042 17.398-66.56 0.041-76.8-62.444-139.284-138.199-139.284s-138.24 62.464-138.24 138.24 62.484 138.24 138.24 138.24c18.432 0 36.884-3.082 53.248-10.24 8.192-3.082 16.384 0 20.48 8.192 4.076 8.202 0 16.404-8.212 20.48-20.48 8.202-42.998 13.322-65.516 13.322-93.204 0-168.96-75.756-168.96-168.96 0-88.074 67.604-160.758 153.6-167.916v-73.728l-35.84-0.031c-8.192 0-15.36-7.168-15.36-15.36s7.168-15.36 15.36-15.36h35.84v-34.796c0-8.202 7.168-15.36 15.36-15.36s15.36 7.158 15.36 15.36v34.796h35.84c8.192 0 15.36 7.168 15.36 15.36s-7.168 15.36-15.36 15.36h-35.84v73.728c85.996 6.144 153.6 78.828 153.6 166.912zM607.242 405.002c2.048-1.044 5.12-2.048 7.168-2.048 5.12 0 10.24 3.092 13.312 8.212 14.316 25.6 21.524 54.272 21.524 82.954 0.993 93.164-74.762 168.919-167.967 168.919s-168.96-75.756-168.96-168.96c0-28.672 7.158-57.354 21.514-81.92 4.086-7.168 13.322-10.24 20.48-6.154 7.168 4.076 10.24 13.312 6.164 20.48-11.284 20.48-17.408 44.032-17.408 66.56-0.010 76.8 62.464 139.274 138.23 139.274s138.24-62.484 138.24-138.24c0-23.562-6.164-47.124-18.442-68.608-4.086-7.158-1.004-16.394 6.154-20.48zM533.524 366.080c-33.792-13.312-72.724-13.312-105.482 1.044-8.192 3.072-16.404 0-20.48-8.202-3.072-8.202 0-16.404 8.192-20.48 16.404-7.168 32.768-11.284 50.176-12.288v-21.514h-35.85c-8.212 0-15.36-7.168-15.36-15.36s7.148-15.36 15.36-15.36h35.84v-50.156l-24.576 24.556c-6.144 6.164-15.36 6.164-21.504 0s-6.164-15.36 0-21.524l50.156-50.156c1.034-1.044 3.072-3.072 5.12-3.072 2.079-2.048 4.116-2.048 6.154-2.048s4.086 0 5.12 1.044c2.048 1.034 4.086 2.038 5.12 3.072l50.166 50.166c6.154 6.154 6.154 15.36 0 21.514-6.164 6.164-15.36 6.164-21.524 0l-24.556-24.556v51.159h36.884c8.192 0 15.36 7.168 15.36 15.36s-7.168 15.36-15.36 15.36h-35.84v21.524c16.404 1.034 32.768 5.12 48.128 11.274 8.192 3.082 11.264 12.288 8.192 20.48-3.072 8.161-12.288 11.244-19.436 8.161zM913.398 719.36c-2.048 4.076-4.076 7.168-8.192 8.192-2.048 1.044-4.096 1.044-5.12 1.044h-72.724c-8.202 0-15.36-7.158-15.36-15.36 0-8.192 7.158-15.36 15.36-15.36h34.796l-71.68-71.68c-23.552 20.48-53.248 33.802-87.040 38.922-27.648 4.086-56.32 0-82.964-10.24-8.192-3.072-12.278-12.288-9.196-19.436 3.072-7.168 12.288-12.288 19.436-9.206 21.524 8.202 45.046 11.284 67.604 8.202 75.756-10.24 129.044-79.872 118.804-154.644-10.24-75.756-79.872-129.044-154.644-118.804-36.884 5.12-69.632 23.552-92.16 53.248-22.528 29.676-32.768 65.516-27.648 102.4 2.048 18.432 8.212 36.864 18.452 52.224 4.076 7.168 2.038 16.404-5.12 21.524-7.168 4.086-16.404 2.048-21.524-5.12-11.284-19.436-19.436-40.96-22.528-64.512-12.268-92.16 53.248-177.162 145.408-189.44 7.158-1.044 14.316-1.044 21.514-1.044 83.968 0 156.682 62.484 166.922 147.436 6.164 48.128-8.192 94.208-36.874 129.044l72.714 72.724v-34.806c0-8.192 7.168-15.36 15.36-15.36 8.202 0 15.36 7.168 15.36 15.36v72.724c2.089-2.12 1.044-0.082 1.044 1.956z" />
<glyph unicode="&#xe906;" glyph-name="delivery" d="M419.84 714.24v-532.48h215.040v163.84h102.4v-163.84h215.040v532.48h-215.040v-163.84h-102.4v163.84zM92.16 570.88c-11.311 0-20.48-9.169-20.48-20.48s9.169-20.48 20.48-20.48h225.28c11.311 0 20.48 9.169 20.48 20.48s-9.169 20.48-20.48 20.48zM174.080 468.48c-11.311 0-20.48-9.169-20.48-20.48s9.169-20.48 20.48-20.48h143.36c11.311 0 20.48 9.169 20.48 20.48s-9.169 20.48-20.48 20.48zM235.52 366.080c-11.311 0-20.48-9.169-20.48-20.48s9.169-20.48 20.48-20.48h81.92c11.311 0 20.48 9.169 20.48 20.48s-9.169 20.48-20.48 20.48z" />
<glyph unicode="&#xe907;" glyph-name="birthday" d="M789.32 864c11.765 0.023 21.296 9.555 21.32 21.317l0.041 42.683c-0.023 11.765-9.555 21.296-21.317 21.32-11.772-0.012-21.31-9.55-21.322-21.319v-42.681c0-0.012 0-0.027 0-0.041 0-11.752 9.527-21.279 21.279-21.279 0 0 0 0 0 0zM618.68 864c11.765 0.023 21.296 9.555 21.32 21.317v42.683c-0.023 11.765-9.555 21.296-21.317 21.32-11.772-0.012-21.31-9.55-21.322-21.319v-42.681c0-0.009 0-0.020 0-0.031 0-11.758 9.531-21.289 21.289-21.289 0.011 0 0.022 0 0.032 0zM529.285 237.322c152.044-13.445 309.402-27.034 494.715-12.524v128c-55.91-4.321-109.681-6.513-161.004-6.513-120.596 0-230.236 9.718-337.48 19.2-186.563 16.517-348.836 30.239-525.517-10.885v-127.119c180.204 40.079 350.116 25.805 529.285 9.841zM862.996 175.636c-120.596 0-230.236 9.728-337.48 19.159-186.563 16.558-348.836 30.362-525.517-10.875v-151.921c0.017-47.114 38.206-85.302 85.318-85.32h853.321c47.114 0.017 85.302 38.206 85.32 85.318l0.041 150.243c-55.921-4.321-109.681-6.605-161.004-6.605zM529.285 407.962c152.044-13.404 309.402-27.034 494.715-12.524v148.48c0 47.124-38.277 85.32-85.32 85.32l-128 0.041v170.68c-0.023 11.765-9.555 21.296-21.317 21.32-11.772-0.012-21.31-9.55-21.322-21.319v-170.681h-128.041v170.68c-0.023 11.765-9.555 21.296-21.317 21.32-11.772-0.012-21.31-9.55-21.322-21.319v-170.681h-128.041v170.68c0 11.766-9.564 21.32-21.32 21.32s-21.32-9.554-21.32-21.32v-170.68h-128v170.68c-0.012 11.77-9.55 21.308-21.319 21.32-11.771-0.012-21.309-9.55-21.321-21.319v-170.681h-170.721c-47.114-0.017-85.302-38.206-85.32-85.318v-145.799c180.204 40.079 350.116 25.764 529.285 9.8zM448 864c11.77 0.012 21.308 9.55 21.32 21.319v42.681c0 11.756-9.564 21.32-21.32 21.32s-21.32-9.564-21.32-21.32v-42.68c0-11.756 9.564-21.32 21.32-21.32zM277.32 864c11.77 0.012 21.308 9.55 21.32 21.319l0.041 42.681c-0.012 11.77-9.55 21.308-21.319 21.32-11.771-0.012-21.309-9.55-21.321-21.319v-42.681c0-0.012 0-0.027 0-0.041 0-11.752 9.527-21.279 21.279-21.279 0 0 0 0 0 0z" />
<glyph unicode="&#xe908;" glyph-name="camera" d="M173.64 878.162c-50.79 0-91.802-41.4-91.802-92.57v-675.594c0-51.159 41.001-92.16 91.802-92.16h676.68c50.79 0 91.802 41.001 91.802 92.16v675.604c0.041 51.159-40.96 92.559-91.761 92.559zM511.795 775.444c180.685 0 327.639-146.964 327.639-327.997 0-180.685-146.964-327.639-327.639-327.639s-327.639 146.964-327.639 327.639c0 181.043 146.964 327.987 327.639 327.987zM511.795 734.444c-158.556 0-286.638-128.082-286.638-286.996 0-158.556 128.082-286.638 286.638-286.638s286.996 128.082 286.996 286.638c0 158.925-128.44 286.996-286.996 286.996zM511.795 652.8c112.845 0 205.005-92.16 205.005-205.005s-92.16-204.636-205.005-204.636-204.636 91.802-204.636 204.636 91.802 205.005 204.636 205.005zM849.992 140.882c16.681 0 30.484-13.793 30.484-30.833 0-17.050-13.804-30.843-30.484-30.843-17.031 0-30.838 13.807-30.838 30.838s13.807 30.838 30.838 30.838z" />
<glyph unicode="&#xe909;" glyph-name="cat" d="M31.846 549.519c0 4.485 0.553 8.878 1.434 13.24-0.563 4.157-1.434 3.922-1.434-13.24zM916.163 577.403c-16.005-10.117-128.481-78.95-141.281-70.4-6.277 4.239 19.681 40.243 8.243 55.685-16.159 21.791-12.124 51.231-20.204 75.95-7.24 22.118-35.041 38.287-39.24 58.921-3.635 17.715 20.685 27.361 7.035 45.844-15.667-9.636-31.355-19.323-47.032-29-8.366 37.478 9.953 71.363-42.527 33.485-43.356-31.283-83.476-57.528-105.359-108.401-16.64-38.687-8.755-98.406-52.992-114.524-46.49-16.968-94.648-34.611-138.721-57.16-32.522-16.691-62.208-59.208-99.533-63.529-41.196-4.751-52.47 85.197-56.474 111.677-6.758 44.851-12.8 92.57-63.59 107.878-41.083 12.401-83.405-20.685-91.331-61 0.645-4.792 0.799-15.473-1.434-13.24 18.156-18.278 51.507 56.402 71.27 14.438 23.808-50.555 18.483-115.405 29.491-169.39 16.282-80.364 52.398-205.998 141.548-232.724 22.528-6.758 55.521 10.281 53.248-22.528-1.679-24.238-20.562-40.714 1.116-63.078 29.563-30.515 141.158-16.077 180.838-13.722 17.644 1.044 108.923 8.847 83.323 47.606-15.841 24.044-63.242 13.558-86.835 13.558 14.275 25.242 42.394 39.158 50.831 68.198 31.642-42.394 50.565-132.71 106.885-132.71 15.124 0 75.561-6.564 61.88 28.232-7.885 19.968-26.481 13.445-39.24 26.644-67.881 70.001-54.804 258.519 51.436 284.467 63.488 15.565 134.922 62.484 176.159 112.927 22.927 28.037 83.804 65.229 91.085 102.707 11.756 59.73-84.89-34.478-88.596-36.833zM744.008 593.603c-4.637 0-8.397 3.759-8.397 8.397s3.759 8.397 8.397 8.397c4.637 0 8.397-3.759 8.397-8.397s-3.759-8.397-8.397-8.397z" />
<glyph unicode="&#xe90a;" glyph-name="chat" d="M789.32 554.68h-298.639c-36.28 0-64-27.72-64-64v-170.68c0-34.12 27.72-64 64-64h213.32l85.32-85.32v85.32c36.28 0 64 29.88 64 64v170.68c0 36.25-27.72 64-64 64zM533.32 704h-298.639c-36.28 0-64-27.72-64-64v-170.68c0-34.12 27.72-64 64-64v-85.32l85.32 85.32h64v85.32c0 59.72 46.92 106.68 106.68 106.68h106.68v42.68c-0.041 36.28-27.75 64-64.041 64z" />
<glyph unicode="&#xe90b;" glyph-name="checkmark" d="M252.365 145.562l72.397-72.397 687.882 687.872-72.397 72.397zM-1.075 399.002l253.44-253.44 72.397 72.397-253.389 253.44z" />
<glyph unicode="&#xe90c;" glyph-name="globe" d="M608.205 916.122c-28.95 6.206-62.21 9.76-96.3 9.76-34.018 0-67.21-3.539-99.227-10.269-214.391-44.137-378.548-237.049-378.548-467.623 0-263.506 214.364-477.87 477.88-477.87s477.88 214.364 477.88 477.88c0 230.564-164.157 423.475-381.676 468.122zM497.49 891.003c5.079-6.164 8.561-11.878 8.561-15.8 0-27.679 85.084-65.28 112.763-89.006 27.72-23.716-51.436-57.354-104.837-88.996s-51.436-136.479-65.28-118.682c-13.844 17.797-104.837 134.482-122.644 11.878-17.797-122.604 39.557-61.317 61.317-57.354 21.76 3.912 19.763-17.807 11.878-37.601-7.916-19.763 91.003-47.483 122.644-51.405 31.642-3.963 65.28 39.526 110.756 0 45.486-39.557 158.208-75.203 213.606-88.996 55.357-13.844 1.946-85.043-17.807-138.445-19.794-53.402-178.043-187.884-286.802-189.88-25.16-0.481 75.162 146.319 13.844 176.005-61.327 29.676-61.327 106.844-55.357 162.202 5.919 55.398-83.087 49.439-235.397 140.442-94.003 56.197-81.285 178.524-57.723 264.079 76.36 72.438 178.115 117.883 290.478 121.539z" />
<glyph unicode="&#xe90d;" glyph-name="female" d="M817.162 596.797c0 168.284-136.878 305.203-305.162 305.203s-305.162-136.878-305.162-305.162c0-159.642 123.238-290.959 279.562-304.005v-132.076h-119.685c-0.009 0-0.020 0-0.031 0-14.122 0-25.569-11.448-25.569-25.569 0-0.011 0-0.022 0-0.032 0-14.16 11.438-25.598 25.6-25.598h119.685v-110.438c0-14.162 11.438-25.6 25.6-25.6s25.6 11.438 25.6 25.6v110.438h119.685c14.162 0 25.6 11.438 25.6 25.6s-11.438 25.6-25.6 25.6h-119.685v132.045c156.324 13.076 279.562 144.364 279.562 304.005zM258.038 596.797c0 140.042 113.92 253.962 253.962 253.962s253.962-113.92 253.962-253.962-113.92-253.962-253.962-253.962-253.962 113.961-253.962 253.962z" />
<glyph unicode="&#xe90e;" glyph-name="meetup" d="M1013.76 188.518v-85.524h-1003.52v92.16c0 0.083-0.001 0.182-0.001 0.281 0 20.053 9.077 37.986 23.347 49.914 55.941 45.572 118.76 86.644 185.681 120.831 8.015 3.762 9.371 5.782 9.371 8.118 0 0.023 0 0.047 0 0.070v63.392c-8.823 14.736-15.323 31.953-18.47 50.315-7.293 1.489-16.612 11.125-26.77 47.17-13.834 48.845 0.799 56.115 13.322 54.886-2.396 6.676-4.198 13.517-5.437 20.48-2.325 9.66-3.658 20.751-3.658 32.154s1.333 22.493 3.853 33.125c6.423 24.997 19.563 47.298 37.389 64.854 10.185 10.803 21.559 20.269 33.974 28.258 10.33 7.253 21.374 13.032 33.169 17.227 10.028 3.515 20.519 5.611 31.424 6.122 4.301 0.471 9.001 0.734 13.763 0.734 23.596 0 45.681-6.467 64.579-17.726 15.022-7.881 27.715-19.754 36.663-34.191s62.484-4.811 41.195-131.367c-1.229-6.963-3.072-13.834-5.427-20.48 12.39 1.126 27.116-6.042 13.312-54.886-10.24-35.717-19.436-45.752-26.634-46.275-3.311-18.967-9.82-35.91-19.003-51.052l0.366-63.657c0-2.294 1.311-4.403 3.389-5.407 38.057-19.057 69.097-36.86 99.114-56.12 26.449 20.679 49.612 32.363 57.681 36.356h-0.031c1.833 0.897 3.073 2.749 3.073 4.89 0 0.038 0 0.075-0.001 0.113v58.567c-8.164 13.581-14.207 29.444-17.184 46.362-6.685 1.346-15.379 11.074-24.81 43.637-12.083 42.476-0.717 51.2 10.24 51.2-5.837 24.873-20.48 111.186 43.725 150.426h0.031c-7.497 6.342-12.246 15.732-12.319 26.233s73.318-8.272 108.759-1.032c35.441 7.281 73.646-20.48 79.688-47.309 0 0 71.68 0 44.032-128.41 11.284 0 23.45-7.27 11.039-51.2-9.318-33.075-18.033-42.281-24.678-42.803-3.071-17.75-9.106-33.616-17.623-47.823l0.348-56.932c-0.001-0.029-0.001-0.063-0.001-0.097 0-2.136 1.225-3.986 3.011-4.886 67.999-34.113 126.53-72.058 180.385-115.561 11.322-9.653 19.646-26.184 19.646-44.659 0-0.173-0.001-0.345-0.002-0.517z" />
<glyph unicode="&#xe90f;" glyph-name="hashtag" d="M905.165 539.443c29.966 0.423 54.096 24.814 54.096 54.84s-24.13 54.418-54.056 54.84h-145.478l27.955 158.484c0.438 2.605 0.688 5.605 0.688 8.664 0 30.307-24.569 54.876-54.876 54.876-26.635 0-48.838-18.975-53.827-44.145l-31.382-177.839h-219.924l27.955 158.484c0.481 2.728 0.756 5.87 0.756 9.075 0 30.307-24.569 54.876-54.876 54.876-26.782 0-49.083-19.185-53.908-44.562l-31.368-177.904-161.485 0.041c-29.966-0.423-54.096-24.814-54.096-54.84s24.13-54.418 54.056-54.84h142.202l-32.236-182.835-146.524-0.041c-29.966-0.423-54.096-24.814-54.096-54.84s24.13-54.418 54.056-54.84h127.2l-27.955-158.515c-0.439-2.608-0.69-5.613-0.69-8.677 0-30.307 24.569-54.876 54.876-54.876 26.658 0 48.876 19.008 53.84 44.21l31.371 177.91h219.955l-27.955-158.515c-0.532-2.868-0.836-6.167-0.836-9.538 0-26.929 19.418-49.322 45.016-53.941 3.195-0.579 6.487-0.881 9.849-0.881 26.943 0 49.35 19.416 53.993 45.020l31.375 177.896h179.804c0.003 0 0.007 0 0.010 0 30.279 0 54.825 24.546 54.825 54.825 0 0.004 0 0.007 0 0.011 0 0.006 0 0.013 0 0.020 0 30.279-24.546 54.825-54.825 54.825-0.004 0-0.007 0-0.011 0h-160.481l32.236 182.835zM596.726 356.567h-219.955l32.236 182.835h219.955z" />
<glyph unicode="&#xe910;" glyph-name="like" d="M853.32 682.68c-23.48 42.68-170.68 185.6-341.32-21.32-179.2 206.92-317.88 64-341.32 21.32-42.68-78.92-17.080-198.4 42.68-256l298.68-298.68 298.68 298.68c59.679 57.6 85.279 177.039 42.598 256z" />
<glyph unicode="&#xe911;" glyph-name="password" d="M761.6 620.8v61.88c0 135.475-108.8 245.32-243.2 245.32s-244.275-109.875-244.275-245.32v-61.88h-11.725c-70.4 0-128-56.525-128-128v-396.8c0-70.4 56.525-128 128-128h498.125c70.41 0 128 56.525 128 128v396.8c0 71.475-56.515 128-126.915 128zM547.195 214.395c0-19.2-14.92-35.205-35.205-35.205s-35.195 14.93-35.195 35.205v69.325c0 19.19 14.92 35.195 35.205 35.195s35.195-16.005 35.195-35.205zM691.19 620.8h-347.72v61.88c0 97.075 77.875 176.005 173.875 176.005 95.959 0 173.844-78.95 173.844-176.005z" />
<glyph unicode="&#xe912;" glyph-name="search" d="M872.52 147.2l-221.839 221.88c34.12 44.8 53.32 102.4 53.32 164.28 0 153.6-123.72 277.32-277.32 277.32s-277.361-123.761-277.361-277.361 123.72-277.32 277.32-277.32c61.88 0 117.32 19.2 164.28 53.32l221.88-221.88c8.52-8.52 19.2-12.8 29.88-12.8s21.32 4.28 29.88 12.8c17.039 17.080 17.039 42.68-0.041 59.761zM426.68 341.32c-106.68 0-192 85.32-192 192s85.32 192 192 192 192-85.32 192-192c0.001-0.228 0.002-0.499 0.002-0.77 0-105.615-85.617-191.232-191.232-191.232-0.27 0-0.541 0.001-0.811 0.002z" />
<glyph unicode="&#xe913;" glyph-name="male" d="M976.558 892.436c-0.082 0.481-0.276 0.881-0.41 1.362-0.306 1.357-0.658 2.507-1.084 3.62-0.145 0.333-0.503 0.824-0.749 1.305-0.494 1.137-1.001 2.092-1.571 3.003-0.954 1.381-2.008 2.672-3.159 3.868-1.178 1.137-2.469 2.194-3.842 3.14-0.91 0.629-1.822 0.988-2.702 1.469-0.645 0.307-1.208 0.676-1.843 0.952-1.044 0.44-2.15 0.686-3.236 1.004-0.522 0.123-1.004 0.358-1.526 0.44-1.489 0.306-3.201 0.481-4.954 0.481-0.001 0-0.002 0-0.003 0h-217.2c-0.009 0-0.020 0-0.031 0-14.122 0-25.569-11.448-25.569-25.569 0-0.011 0-0.022 0-0.032 0-14.16 11.438-25.598 25.6-25.598h155.402l-220.436-220.447c-68.403 59.843-155.044 92.559-246.764 92.559-100.321 0-194.601-39.076-265.564-109.998-146.401-146.442-146.401-384.635 0-531.077 70.922-70.922 165.243-109.998 265.564-109.998s194.601 39.076 265.564 109.998c140.319 140.319 146.084 364.964 17.398 512.276l220.436 220.436v-155.402c0-14.138 11.462-25.6 25.6-25.6s25.6 11.462 25.6 25.6v217.211c0 1.679-0.205 3.359-0.512 4.997zM651.796 129.126c-61.235-61.235-142.725-94.996-229.325-94.996-86.63 0-168.079 33.761-229.356 94.996-126.444 126.444-126.444 332.196 0 458.68 61.235 61.235 142.725 95.007 229.325 95.007 86.63 0 168.079-33.72 229.356-95.007 126.444-126.454 126.444-332.196 0-458.68z" />
<glyph unicode="&#xe914;" glyph-name="body-chest" d="M143.155 280.156c-1.36 3 18.16-38 24.639-54.16 42.080-105.236 36.72-91 40.68-112.804 1.6-8.68 2.36-17.24 2.36-26.6v-120.484c0-16.64 13.48-30.12 30.12-30.12h542.085c16.64 0 30.12 13.48 30.12 30.12v120.484c0 9.36 0.76 17.92 2.36 26.6 3.96 21.8-1.4 7.56 40.68 112.804 6.48 16.16 26 57.16 24.639 54.16 15.679 35.28 21.52 70.76 22.52 153.6 22.040 1.2 56.24 3.8 72.6 7.44 15.080 3.36 25.4 7 31.4 9.96 10.2 5.12 16.64 15.56 16.64 26.96v271.043c0 11.44-6.44 21.84-16.64 26.96-1.76 0.84-1.76 0.84-2.88 1.36-1.92 0.84-4.080 1.8-6.52 2.76-6.76 2.72-14.44 5.4-23 7.88-58.080 16.88-123.044 16.88-188.723-11.28-70.68-30.28-93.52-9.52-93.52 62.68v90.36c0 16.64-13.48 30.12-30.12 30.12h-301.199c-16.64 0-30.12-13.48-30.12-30.12v-90.36c0-72.2-22.84-92.96-93.52-62.68-65.68 28.16-130.642 28.16-188.723 11.28-14.8-4.28-25.84-8.72-32.4-12-10.2-5.12-16.64-15.52-16.64-26.96v-256c0-7.96 3.16-15.64 8.84-21.28 2.080-1.96 2.080-1.96 3.24-2.96 1.88-1.6 4.080-3.28 6.56-5.040 6.6-4.68 14.48-9.16 23.72-13.28 17.96-8 54.079-13.6 78.28-16.16 0.96-83.32 6.8-118.917 22.52-154.276zM512-3.768c-16.64 0-30.12 13.48-30.12 30.12s13.48 30.12 30.12 30.12 30.12-13.48 30.12-30.12-13.48-30.12-30.12-30.12zM707.758 342.589c-16.64 0-30.12 13.48-30.12 30.12 0 16.6 13.48 30.12 30.12 30.12s30.12-13.52 30.12-30.12c0-16.64-13.48-30.12-30.12-30.12zM316.242 342.589c-16.64 0-30.12 13.48-30.12 30.12 0 16.6 13.48 30.12 30.12 30.12s30.12-13.52 30.12-30.12c0-16.64-13.48-30.12-30.12-30.12z" />
<glyph unicode="&#xe915;" glyph-name="body-full" d="M919.644 738.437l-49.121-4.157-80.323 9.359-42.998-9.318-59.515 2.632-41.001-6.349-42.394 5.99-19.732-10.639-36.28 12.8h-9.953v38.195l4.239 15.606v58.88l-13.804 11.52h-33.556l-13.763-11.52v-58.921l4.239-15.596v-38.195h-10.004l-36.28-12.8-27.197 10.629-34.877-6.042-41.001 6.369-59.515-2.56-43.008 9.318-0.758-0.082-79.565-9.277-49.111 4.157-53.166-20.685 18.084-8.274 27.884 4.956 2.396-6.195 22.006-1.198 12.278-5.806 18.432 7.199 65.526-11.121h53.555l35.533-10.158 79.432-11.039 26.112-43.602 20.214-22.712 22.876-46.52 1.516-33.997-14.479-29.164-13.957-64.686 2.324-104.346 9.554-43.93 1.044-32.522-10.957-28.795-1.126-43.284 14.397-73.923-4.116-17.357 4.639-12.442-10.598-22.794-9.441-2.488v-20.439h69.325l-13.414 42.803 1.608 16.845-4.71 13.076 17.869 66.56 0.164 45.363-9.042 31.273 2.56 36.157 13.681 33.28 6.001 108.237h7.117l6.001-108.237 13.681-33.28 2.519-36.147-9.042-31.283 0.164-45.363 17.879-66.56-4.71-13.076 1.587-16.845-13.394-42.803h69.325v20.439l-9.452 2.488-10.445 22.671 4.649 12.493-4.116 17.357 14.397 73.912-1.126 43.284-10.957 28.795 1.085 32.522 9.554 43.93 2.324 104.346-13.967 64.686-14.479 29.153 1.526 33.997 22.876 46.531 20.204 22.723 26.112 43.592 79.452 11.039 35.512 10.168h53.555l65.536 11.121 18.432-7.209 12.319 5.806 22.006 1.198 2.396 6.195 27.884-4.956 18.033 8.366z" />
<glyph unicode="&#xe916;" glyph-name="location" d="M512 789.32c-0.201 0.001-0.439 0.001-0.677 0.001-129.237 0-234.004-104.767-234.004-234.004 0-0.238 0-0.476 0.001-0.714 0-130.083 234.68-447.963 234.68-447.963s234.68 317.88 234.68 448c0.001 0.201 0.001 0.439 0.001 0.677 0 129.237-104.767 234.004-234.004 234.004-0.238 0-0.476 0-0.714-0.001zM512 448c-59.72 0-106.68 46.92-106.68 106.68 0 59.72 46.92 106.68 106.68 106.68 59.72 0 106.68-46.92 106.68-106.68s-46.961-106.68-106.68-106.68z" />
<glyph unicode="&#xe917;" glyph-name="name" d="M140.36 626.801v-0.358l-8.038-20.326-132.362-336.763h264.684l-9.605 24.402-2.038 5.53h-209.439l112.681 286.577 124.477-316.283v-0.358h743.24l-140.524 357.53h-743.076z" />
<glyph unicode="&#xe918;" glyph-name="notification" d="M971.479 111.524c16.193 0.051 29.319 13.109 29.481 29.271v47.13c-1.129 19.164-9.513 36.175-22.417 48.49s-192.541 163.867-206.979 424.27c-17.418 312.013-176.845 299.315-259.584 299.315s-242.145 12.698-259.594-299.11c-14.438-260.741-206.92-424.243-206.92-424.243-12.949-12.333-21.333-29.356-22.417-48.335l-0.009-47.511c0.046-16.26 13.212-29.429 29.466-29.481h918.963zM394.639 52.838c0-53.76 44.032-116.838 97.792-116.838h39.127c53.76 0 97.792 63.078 97.792 116.838z" />
<glyph unicode="&#xe919;" glyph-name="options" d="M512 565.76c-65.044 0-117.76-52.716-117.76-117.76s52.716-117.76 117.76-117.76 117.76 52.716 117.76 117.76-52.716 117.76-117.76 117.76zM803.84 565.76c-65.044 0-117.76-52.716-117.76-117.76s52.716-117.76 117.76-117.76 117.76 52.716 117.76 117.76-52.716 117.76-117.76 117.76zM220.16 565.76c-65.044 0-117.76-52.716-117.76-117.76s52.716-117.76 117.76-117.76 117.76 52.716 117.76 117.76-52.716 117.76-117.76 117.76z" />
<glyph unicode="&#xe91a;" glyph-name="condition" d="M102.4 857.6v-819.2h819.2v819.2zM512.317 714.24c40.684 0 80.323-14.162 111.043-39.045s52.48-61.624 52.48-104.315c0-41.595-10.281-70.871-26.563-91.832s-36.321-32.881-53.443-45.128-31.754-24.197-43.192-45.435-19.845-52.838-19.845-104.325c-0.276-11.080-9.359-19.917-20.48-19.917s-20.204 8.837-20.48 19.917c0 56.044 9.523 95.16 24.965 123.843s36.639 45.844 55.357 59.197 33.874 23.521 44.483 37.12c10.547 13.599 18.227 31.365 18.227 66.56 0 29-13.793 54.006-36.792 72.643s-54.845 29.757-85.76 29.757c-62.444 0-112.845-43.96-123.515-86.723-1.134-5.634-4.461-10.335-9.032-13.263-3.196-2.064-7.002-3.261-11.087-3.261-11.299 0-20.46 9.16-20.46 20.46 0 2.14 0.329 4.204 0.938 6.143 15.997 64.070 82.116 117.605 163.166 117.605zM512.317 243.2c16.967-0.006 30.72-13.762 30.72-30.73 0-16.972-13.758-30.73-30.73-30.73-0.004 0-0.007 0-0.011 0-16.967 0.006-30.719 13.762-30.719 30.73 0 16.972 13.758 30.73 30.73 30.73 0.004 0 0.007 0 0.011 0z" />
<glyph unicode="&#xe91b;" glyph-name="biography" d="M840.878 903.24c-0.236 3.041-2.796 6.124-6.799 5.437-139.756-24.883-297.718-103.322-382.198-221-1.198-1.679 0.44-3.318 2.12-3.318l0.164-0.84c-4.485-0.604-5.929-8.038-0.604-9.236 38.324-8.721 69.652-17.813 100.262-28.438-22.663 3.432-38.781 4.712-54.95 5.992-15.749 1.28-35.43 6.124-51.108 3.246-27.32-5.079-44.524-44.605-54.374-66.642-36.71-82.166-28.908-175.442-3.308-259.482v-0.082c-2.284-8.837-4.321-17.715-5.919-26.644-39.526-0.072-78.961-0.512-118.374-2.714-0.505-0.034-0.967-0.193-1.363-0.447-0.746 0.765-1.791 1.082-2.866 0.324-14.561-9.759-21.647-26.358-15.165-43.397 5.837-15.442 22.804-27.197 39.444-24.842 3.195-11.203 3.635-22.917 0.072-34.079-0.133-0.395-0.21-0.85-0.21-1.323 0-0.762 0.199-1.478 0.548-2.098-60.294-3.624-119.010-65.34-107.019-127.497 14.162-73.001 111.288-80.794 170.291-78.756 63.16 2.273 161.044 14.080 191.918 79.196 35.717 75.284-52.244 118.641-109.568 136.684-0.154 0.082-0.236 0-0.43 0.082-3.4 8.192-4.567 16.282-1.679 24.678 17.715-5.366 38.554 1.198 48.312 17.48 9.687 16.282 5.243 36.639-8.079 49.275 1.085 3.123-0.594 7.127-4.833 7.127-24.924 0.154-49.879 0.317-74.885 0.317 4.157 13.558 8.806 26.88 13.844 40.038 0.594 0.082 1.198 0.164 1.874 0.358 91.32 40.366 175.8 94.72 249.395 162.324 36.266 33.39 69.236 69.058 99.179 107.215 28.708 36.903 55.588 71.985 53.387 118.024 1.075 2.806 0.236 6.359-3.4 7.444-4.4 1.577-15.193 4.572-26.066 7.367 5.699 0.59 17.577-0.168 29.507-0.844 2.355-0.164 4.403 1.751 5.079 3.912 16.2 50.043 28.918 101.407 33.157 153.917 0.246 3.164-4.362 3.922-5.356 1.249z" />
<glyph unicode="&#xe91c;" glyph-name="settings" d="M430.080 888.32l-19.845-128.635c-18.288-6.057-33.732-12.66-48.507-20.369l-103.168 77.969-115.835-115.835 77.117-104.96c-6.858-12.984-13.461-28.427-18.85-44.429l-129.303-22.141v-163.84l128.635-19.835c6.056-18.292 12.66-33.739 20.369-48.518l-77.969-103.167 115.835-115.825 104.96 77.117c15.002-7.639 30.515-14.234 46.725-19.517l19.835-128.635h163.84l19.845 128.635c18.288 6.057 33.732 12.66 48.507 20.369l103.168-77.969 115.835 115.835-77.117 104.96c6.859 12.987 13.462 28.434 18.85 44.44l129.302 22.11v163.84l-128.635 19.845c-6.057 18.288-12.66 33.732-20.369 48.507l77.969 103.168-115.835 115.845-104.96-77.117c-12.987 6.859-28.434 13.462-44.44 18.85l-22.12 129.302zM512 632.32c101.796 0 184.32-82.524 184.32-184.32s-82.524-184.32-184.32-184.32-184.32 82.524-184.32 184.32 82.524 184.32 184.32 184.32z" />
<glyph unicode="&#xe91d;" glyph-name="share-android" d="M704 298.68c-23.48 0-44.8-8.52-64-21.32l-279.48 160c0 4.28 2.12 8.52 2.12 10.68 0 2.12 0 8.52-2.12 10.68l279.48 159.959c17.080-12.8 40.52-21.32 64-21.32 59.72 0 106.68 46.92 106.68 106.68 0 59.72-46.92 106.68-106.68 106.68-59.72 0-106.68-46.92-106.68-106.68 0-4.28 0-6.4 2.12-10.68l-279.439-160.041c-17.39 13.306-39.443 21.322-63.368 21.322-0.222 0-0.444-0.001-0.666-0.002-59.686 0-106.646-46.92-106.646-106.68 0-59.72 46.92-106.68 106.68-106.68 23.48 0 44.8 8.52 64 21.32l279.48-160c0-4.28-2.12-6.4-2.12-10.68 0-59.72 46.92-106.68 106.68-106.68 59.72 0 106.68 46.92 106.68 106.68-0.041 59.802-47.002 106.762-106.721 106.762z" />
<glyph unicode="&#xe91e;" glyph-name="share-ios" d="M595.2 606.72v-51.2h184.719v-494.961h-535.839v494.961h184.719v51.2h-235.919v-597.361h638.28l-0.041 597.361zM486.4 799.201v-509.082h51.2v509.082l93.522-93.522 36.198 36.198-155.32 155.361-155.32-155.351 36.198-36.198z" />
<glyph unicode="&#xe91f;" glyph-name="shoppingBag" d="M701.44 633.364v100.352c0 97.28-78.848 177.172-177.162 177.172-97.28-0.041-176.118-79.923-176.118-177.203v-100.362l-118.804 0.041v-644.076h590.838l0.041 644.076zM683.008 633.364h-317.44v100.352c0 87.040 70.636 158.72 158.72 158.72 87.040 0 158.72-70.636 158.72-158.72z" />
<glyph unicode="&#xe920;" glyph-name="mobile" d="M655.36 775.68h-286.72c-45.243 0-81.92-36.677-81.92-81.92v-491.52c0-45.243 36.677-81.92 81.92-81.92h286.72c45.243 0 81.92 36.677 81.92 81.92v491.52c0 45.243-36.677 81.92-81.92 81.92zM512 181.76c-0.007 0-0.015 0-0.023 0-16.958 0-31.506 10.315-37.713 25.014-6.46 15.588-2.947 33.19 8.777 44.915s29.317 15.237 44.646 8.868c14.962-6.31 25.272-20.855 25.272-37.809 0-0.010 0-0.019 0-0.029 0-0.008 0-0.018 0-0.029 0-22.605-18.325-40.929-40.929-40.929-0.011 0-0.022 0-0.032 0z" />
<glyph unicode="&#xe921;" glyph-name="priceTag" d="M812.8 428.8l-320 320c-10.68 12.8-27.72 19.2-44.8 19.2h-213.32c-36.28 0-64-27.72-64-64v-213.32c0-17.080 6.4-34.12 19.2-44.8l320-320c12.8-12.8 29.88-19.2 44.8-19.2s32 6.4 44.8 19.2l213.32 213.32c25.6 23.48 25.6 66.12 0 89.6zM320 576c-23.48 0-42.68 19.2-42.68 42.68s19.2 42.68 42.68 42.68 42.68-19.2 42.68-42.68-19.2-42.68-42.68-42.68z" />
<glyph unicode="&#xe922;" glyph-name="twitter" d="M352.317 83.476c333.322 8.284 515.318 285.604 515.318 526.561 0 7.997-0.164 16.005-0.512 23.921 36.608 26.498 67.47 58.256 92.187 94.535-30.352-12.784-66.537-23.043-104.466-27.644 36.701 22.708 66.275 58.989 80.191 102.222-34.105-20.421-73.786-36.004-116.029-44.508-36.542 35.638-84.737 58.066-138.17 58.066-0.126 0-0.251 0-0.377 0-103.016 0-186.554-82.872-186.554-185.149 0-14.479 1.69-28.6 4.854-42.168-155.134 7.79-291.734 81.058-383.718 192.512-16.617-25.648-26.015-57.668-26.015-91.884 0-0.090 0-0.179 0-0.269 0-64.232 32.932-120.92 83.005-154.108-31.156 1.001-60.129 9.461-85.468 23.639l0.947-2.801c0-89.723 64.287-164.516 149.637-181.524-14.718-4.143-31.62-6.524-49.078-6.524-12.434 0-24.586 1.208-36.345 3.513 24.904-73.748 93.789-127.273 175.432-128.757-63.033-49.43-143.485-79.269-230.905-79.269-0.258 0-0.516 0-0.774 0.001-14.961 0-29.758 0.881-44.279 2.601v-0.123c77.878-50.246 172.59-80.854 274.317-82.834l26.8-0.008z" />
<glyph unicode="&#xe923;" glyph-name="user" d="M1009.398 143.124c-21.678 111.8-319.836 99.922-391.721 187.484-15.155 18.483-15.155 18.483-4.997 87.122 17.357 76.841 33.075 29.164 57.876 182.364 20.797 128.676-23.644 239.278-158.556 239.278s-179.364-110.602-158.556-239.278c24.801-153.242 40.52-105.574 57.876-182.374 10.168-68.628 10.168-68.628-4.997-87.112-71.885-87.552-370.043-75.674-391.721-187.484-2.56-13.24-14.602-86.477-14.602-86.477h1024s-12.042 73.236-14.602 86.477z" />
<glyph unicode="&#xe924;" glyph-name="sport-bowling" d="M595.958 466.442c-117.402 0-212.316-95.56-212.316-213.002 0-117.402 94.88-213.002 212.316-213.002 117.402 0 212.316 95.56 212.316 213.002 0 117.402-94.88 213.002-212.316 213.002zM514.038 362.004c0 18.44 15 33.44 33.44 33.44s32.76-15 32.76-33.44c0-18.44-15-33.44-32.76-33.44-19.080-0.040-33.44 15-33.44 33.44zM595.958 187.924c-23.2 0-42.32 19.12-42.32 42.32s19.12 42.32 42.32 42.32 42.32-19.12 42.32-42.32c0-23.24-18.4-42.32-42.32-42.32zM645.118 328.52c-18.44 0-33.44 15-33.44 33.44s15 33.44 33.44 33.44 32.76-15 32.76-33.44c0-18.4-14.32-33.44-32.76-33.44zM388.444 655.524v6.16h-76.481v-15.72h76.44zM410.276 771.604c2.72 6.84 4.080 14.32 4.080 22.52 0 35.48-28.68 64.16-64.16 64.16s-64.16-28.68-64.16-64.16c0-7.52 1.36-15 4.080-22.52 10.24-27.32 16.4-53.92 19.8-79.88h80.56c3.4 25.919 9.56 51.88 19.8 79.88zM354.324 253.44c0 77.84 36.88 147.436 94.2 191.16-4.080 8.2-8.2 15.72-12.96 23.2-28 43.68-44.36 94.88-46.44 148.838l-77.16-0.040c-2.72-53.24-18.4-104.438-47.080-148.122-31.4-49.16-49.84-120.156-49.84-195.922 0-81.92 21.84-159.764 58.040-207.524 12.28-16.4 32.76-26.64 54.6-26.64h44.36c21.84 0 42.32 10.24 54.6 26.64 2.040 2.72 4.080 6.16 6.84 9.56-48.44 44.36-79.16 107.837-79.16 178.842z" />
<glyph unicode="&#xe925;" glyph-name="sport-soccer" d="M686.203 535.48l-57.281 156.836-187.597 44.84-119.276-127.601 57.64-183.081 178.084-31.56zM599.88 211.241l149.801-26.16 120.32 129.638-29.64 171.121-136.12 33.36-129.157-141.363zM178.524 609.004l-76.4-145.879 49.8-155.884 125.358-28.52 79.8 138.476-57.84 183.88zM940.636 618.557c-0.92 2.24-1.56 4.56-2.48 6.8-69.56 166.359-233.923 283.638-425.236 283.638-254.116 0-460.882-206.725-460.882-460.841 0-254.044 206.756-460.759 460.882-460.759 254.044 0 460.718 206.725 460.718 460.759 0.040 60.2-11.88 117.637-33 170.404zM477 13.558c-40.080 3.28-78.56 12.080-114.842 25.44-4.52 1.72-9.12 3.16-13.56 4.96l0.92 6.28 56.44 4.4-0.8 65.36-128.041 133.796-121.6 27.6 7.36-93.121c-4.6 6.16-9.32 12.2-13.6 18.68-46 69.080-72.88 152.003-72.88 241.203 0 2.96 1.28 25.6 1.44 28.24h3.8l78.399 149.719 34.8 120.279c5.8 6.16 11.72 12.2 17.88 18.040 3.72 3.52 35.44 30.68 48.36 39.84l94.040 41.16-0.080 0.28 19.76 8.32 0.2-0.2 56.24 22.92c15.48 2.96 31.32 4.92 47.36 6.2 8.68 0.68 17.4 1.16 26.2 1.32l1.32-3.24-116.122-47.28 54.32-72.32 191.724-45.84 94.28 58.24-61.759 80.88 0.76 0.56c6.88-2.64 13.72-5.32 20.48-8.28 8.16-3.64 16.24-7.52 24.16-11.68l46.68-61.080 128.44-141.24 20.28-3.16c2.040-4.44 4.32-8.76 6.2-13.28 1.8-4.28 3.16-8.76 4.8-13.080l-28.32 4.4-28.6-112.599 30.16-174.684 33.599-9.040c-1.28-3.88-2.8-7.6-4.24-11.44-34.28-94.88-100.36-174.316-185.6-225.638-4.6-2.8-9.080-5.8-13.8-8.36l16.44 96-149.361 26.040-161.075-71.12 0.84-68.24 60.88-28.52-1.8-7.36c-4.16 0.24-8.32 0.28-12.481 0.64z" />
<glyph unicode="&#xe926;" glyph-name="sport-badminton" d="M72.52 228.28c-72.52-72.52-83.2-181.32-21.32-243.2s168.52-51.2 243.2 21.32l36.28 36.28c8.52 8.52 8.52 23.48 0 32l-187.72 187.72c-8.52 8.52-23.48 8.52-32 0zM1006.92 441.6l-12.8 12.8c-4.28 4.28-10.68 6.4-17.080 6.4h-81.080c-12.8 0-23.48 10.68-23.48 23.48v38.4c0 12.8-10.68 23.48-23.48 23.48h-36.28c-12.8 0-23.48 10.68-23.48 23.48v38.4c0 12.8-10.68 23.48-23.48 23.48h-36.28c-12.8 0-23.48 10.68-23.48 23.48v38.4c0 12.8-10.68 23.48-23.48 23.48l-42.52-0.080c-12.8 0-23.48 10.68-23.48 23.48v44.8c0 12.8-10.68 23.48-23.48 23.48h-36.28c-12.8 0-23.48 10.68-23.48 23.48l0.040 74.64c0 6.4-2.12 12.8-6.4 17.080l-19.2 19.2c-12.8 12.8-32 8.52-38.4-6.4l-283.72-595.241-21.32-21.32c-2.12-2.12-2.12-6.4 0-8.52l211.2-211.2c2.12-2.12 6.4-2.12 8.52 0l21.32 21.32 595.2 281.6c14.96 6.4 17.080 27.72 6.4 38.4zM366.92 166.4c-2.12-2.12-6.4 0-6.4 2.12-2.12 2.12-2.12 6.4 2.12 8.52l66.12 40.52c4.28 2.12 8.52 2.12 10.68-2.12 2.12-4.28 2.12-8.52-2.12-10.68zM471.48 230.4c-2.16 4.28-2.16 10.68 2.12 12.8l70.4 40.52c4.28 2.12 8.52 2.12 10.68-2.12l2.12-2.12c2.12-4.28 2.12-10.68-2.12-12.8l-72.52-38.4c-2.16-2.16-8.56-2.16-10.68 2.12zM787.2 416c2.12-4.28 4.28-8.52 6.4-12.8s0-8.52-4.28-10.68l-68.28-36.28c-4.28-2.12-8.52 0-10.68 4.28-2.12 4.28-4.28 6.4-6.4 10.68s-2.12 8.52 2.12 12.8l68.28 40.52c4.32-2.12 10.72-4.24 12.84-8.52zM674.12 349.88c2.12-2.12 4.28-6.4 4.28-8.52 2.12-4.28 0-8.52-4.28-12.8l-70.4-38.4c-4.28-2.12-8.52 0-10.68 2.12 0 2.12-2.12 2.12-2.12 4.28-2.12 4.28-2.12 10.68 2.12 12.8l70.4 40.52c2.16 6.4 6.44 4.24 10.68 0zM733.879 503.48c2.12-4.28 6.4-8.52 8.52-12.8s2.12-8.52-2.12-12.8l-68.28-46.92c-4.28-2.12-8.52-2.12-10.68 2.12-2.12 2.12-4.28 6.4-6.4 8.52-2.12 4.28-2.12 8.52 2.12 12.8l66.12 49.080c4.32 4.24 8.56 2.12 10.72 0zM625.079 420.28c2.12-2.12 4.28-4.28 6.4-8.52 2.12-4.28 2.12-8.52-2.12-12.8l-68.28-46.92c-4.28-2.12-8.52-2.12-10.68 2.12-2.12 2.12-2.12 4.28-4.28 4.28-2.12 4.28-2.12 8.52 2.12 12.8l66.12 49.080c2.16 4.2 6.44 4.2 10.72-0.040zM514.119 337.080c0-2.12 2.12-2.12 2.12-4.28 2.12-4.28 2.12-10.68-2.12-12.8l-66.12-46.92c-4.28-2.12-8.52-2.12-10.68 2.12-4.28 4.28-2.12 8.52 2.12 12.8l66.12 49.080c0.040 4.24 6.44 4.24 8.56 0zM403.199 253.88c2.12-4.28 2.12-8.52-2.12-10.68l-66.12-46.92c-2.12-2.12-6.4-2.12-8.52 0s-2.12 6.4 0 8.52l64 49.080c6.36 4.24 10.64 4.24 12.76 0zM486.399 422.4l-4.28 4.28c-4.28 4.28-4.28 8.52 0 12.8l57.6 59.72c4.28 4.28 8.52 4.28 12.8 0l8.52-8.52c2.12-2.12 2.12-6.4 0-8.52l-64-61.88c-2.12-2.12-6.4-2.12-8.52 0 0 2.12 0 2.12-2.12 2.12zM460.799 384l-61.88-59.72c-2.12-2.12-6.4-2.12-8.52 0l-2.12 2.12c-4.28 4.28-4.28 8.52 0 12.8l57.6 59.72c4.28 4.28 8.52 4.28 12.8 0l4.28-4.28c-0.040-2.12-0.040-6.36-2.16-10.64zM351.999 302.92c2.12 2.12 6.4 2.12 8.52 0l4.28-4.28c2.12-2.12 2.12-6.4 0-8.52l-59.72-57.6c-2.12-2.12-6.4-2.12-8.52 0s-2.12 6.4 0 8.52zM661.319 578.12l-61.88-59.72c-4.28-4.28-8.52-2.12-12.8 0l-8.52 8.52c-4.28 4.28-4.28 8.52 0 12.8l59.72 61.88c4.28 4.28 8.52 4.28 12.8 0l10.68-10.68c2.16-4.24 2.16-10.64 0-12.8zM315.719 343.48c2.12-2.12 4.28-6.4 2.12-10.68l-49.080-64c-2.12-2.12-6.4-4.28-8.52 0-2.12 2.12-2.12 6.4 0 8.52l46.92 66.12c-2.080 2.16 4.32 2.16 8.56 0.040-2.12 0 0 0 0 0zM337.078 375.48s-2.16 0 0 0c-4.28 4.28-4.28 8.52-2.12 12.8l46.92 68.28c2.12 4.28 8.52 4.28 12.8 2.12 2.12 0 2.12-2.12 4.28-2.12 4.28-2.12 4.28-8.52 2.12-12.8l-49.080-66.12c-6.4-6.44-12.8-6.44-14.92-2.16zM420.278 484.28c-2.12 2.12-4.28 2.12-4.28 4.28-4.28 2.12-4.28 8.52-2.12 10.68l46.92 68.28c2.12 4.28 8.52 4.28 12.8 2.12 2.12-2.12 4.28-4.28 8.52-6.4 4.28-2.12 4.28-8.52 2.12-12.8l-49.080-66.12c-6.36-2.2-12.76-2.2-14.88-0.040zM567.478 665.6l-51.2-68.28c-2.12-4.28-8.52-4.28-12.8-2.12-2.12 2.12-6.4 4.28-8.52 6.4-4.28 2.12-4.28 8.52-2.12 12.8l49.080 70.4c2.12 4.28 8.52 4.28 12.8 2.12 4.28-2.12 8.52-6.4 12.8-8.52 2.080-4.28 2.080-10.68-0.040-12.8zM467.198 738.12c4.28-2.12 8.52-4.28 12.8-6.4s6.4-8.52 4.28-12.8l-42.68-72.52c-2.12-4.28-8.52-6.4-10.68-2.12-4.28 2.12-6.4 4.28-10.68 6.4s-6.4 6.4-4.28 10.68l40.52 74.68c0.040 4.24 6.44 4.24 10.72 2.080zM401.078 616.52c2.12-2.12 6.4-2.12 8.52-4.28 4.28-2.12 6.4-8.52 2.12-12.8l-40.52-70.4c-2.12-4.28-8.52-6.4-12.8-2.12-2.12 0-2.12 2.12-4.28 2.12-4.28 2.12-4.28 6.4-2.12 10.68l38.4 70.4c2.12 6.4 6.4 8.56 10.68 6.4zM343.478 484.28l-40.52-70.4c-2.12-4.28-8.52-6.4-12.8-2.12-4.28 2.12-4.28 6.4-2.12 10.68l38.4 72.52c2.12 4.28 8.52 6.4 12.8 2.12l2.12-2.12c4.24-2.16 4.24-6.44 2.12-10.68zM273.078 377.6c2.12-2.12 4.28-6.4 2.12-10.68l-40.52-68.24c-2.12-2.12-4.28-2.12-8.52 0-2.12 2.12-2.12 4.28-2.12 6.4l36.28 68.28c4.2 4.24 8.48 6.36 12.76 4.24z" />
<glyph unicode="&#xe927;" glyph-name="sport-baseball" d="M453.519 317.041c80.64 65.96 174.397 155.597 188.559 171.919l250.563 278.723c23.2 26.64 20.4 67-6.24 90.2s-67 20.4-90.2-6.24l-241.756-286.362c-14.2-16.321-90.12-121.477-144.364-210.442l-202.957-243.323c-7.8-8.92-13.92-16.16-18.8-22.12l-8.080 9.12c-6.36 5.56-16.92 3.88-23.56-3.76-6.64-7.6-7.8-26.28 19.6-50.16 27.4-23.84 48.080-22.16 54.721-14.56 6.64 7.64 6.84 18.28 0.48 23.84l-10.2 6.8c5.24 5.64 11.56 12.72 19.32 21.64z" />
<glyph unicode="&#xe928;" glyph-name="sport-hockey" d="M774.84 780.677l-365.082-528.684c-71.24-73.96-228.915-1-316.078-1-20.84 0-38.76-9.4-50.56-26.561-11.839-17.16-14.24-37.24-6.88-56.68 10.28-27.040 36.72-42.44 67.040-46.36 64.080-8.28 128.635-7.88 193.925 0 43 5.2 100.12 12.76 126.075 51.68l382.679 589.24zM498.401 419.799l-249.242 360.878-31.12-18.4 250.481-385.679zM521.923 294.441l78.8-121.364c25.96-38.96 83.080-46.48 126.075-51.68 65.28-7.88 129.843-8.28 193.925 0 30.32 3.92 56.8 19.32 67.040 46.36 7.4 19.48 4.96 39.56-6.88 56.68-11.839 17.16-29.72 26.561-50.56 26.561-87.2 0-244.838-72.92-316.078 1.040l-59.28 85.84z" />
<glyph unicode="&#xe929;" glyph-name="body-rightLeg" d="M460.8 874.68c-42.68-38.4-98.12-136.561-110.92-204.8-34.16-38.4-34.16-76.8-8.56-119.48 17.080-34.12 12.8-72.52 21.32-115.2 8.52-34.12 25.6-68.28 38.4-102.4 25.6-72.52 51.2-157.88 34.12-196.28-21.32-38.4-46.92-29.88-81.080-46.92-34.080-12.8-55.4-21.32-68.2-25.6-34.16-4.28-29.88-8.52-29.88-12.8 0-17.080 12.8-29.88 29.88-29.88 8.52 0 17.080 4.28 25.6 8.52 8.52-8.52 17.040-8.52 29.84-8.52 93.88 0 89.6 8.52 128 8.52 12.8 0 42.68-8.52 76.8-8.52s46.92 25.6 46.92 46.92c0 38.4-34.12 59.72-51.2 170.68-17.080 115.2 21.32 192 12.8 238.92-12.8 76.8-64 102.4-59.72 115.2s21.32 38.4 51.2 55.48c34.16 17.080 183.48 110.961 221.88 226.161z" />
<glyph unicode="&#xe92a;" glyph-name="body-hands" d="M830.003 269.599c22.32 0 39.040 6 51.2 18.36 25.64 26.12 24.76 74.44 24.32 97.68-0.040 2.64-0.080 4.96-0.080 6.92v214.436c0 7.64-6.24 13.88-13.88 13.88s-13.88-6.24-13.88-13.88v-148.081c0-8.48-6.88-15.36-15.36-15.36s-15.36 6.88-15.36 15.36v148.081c0 0.72 0.2 1.4 0.2 2.12-0.080 0.72-0.2 1.4-0.2 2.12v56.080c0 7.64-6.24 13.88-13.88 13.88s-13.88-6.24-13.88-13.88v-188.324c0-8.48-6.88-15.36-15.36-15.36s-15.36 6.88-15.36 15.36v237.722c0 7.68-6.24 13.88-13.88 13.88-7.68 0-13.88-6.24-13.88-13.88v-237.64c0-8.48-6.88-15.36-15.36-15.36s-15.36 6.88-15.36 15.36l-0.040 142.879v56.080c0 7.68-6.24 13.88-13.88 13.88s-13.88-6.24-13.88-13.88v-184.197c0-15.6-6.44-30.8-17.68-41.68l-1.44-1.4 5.6-5.76c5.92-6.080 5.76-15.8-0.32-21.72s-15.8-5.8-21.72 0.32l-13.32 13.72c-1.28 0.72-2.48 1.56-3.56 2.64-0.84 0.88-1.28 1.92-1.88 2.92l-51.44 52.88c-7.36 7.2-19.72 7.12-27.24-0.4-3.72-3.72-5.76-8.68-5.72-13.92 0.040-5.040 1.96-9.8 5.44-13.44l17.601-14.36 1.080-0.96c23.28-22.88 30.24-52.799 35.84-76.88 26.36-113.316 86.88-106.404 87.52-106.322 8.36 1.12 16.16-4.72 17.32-13.119s-4.72-16.16-13.119-17.28c-0.48-0.080-2.48-0.32-5.6-0.32v-133.642h140.483l-0.040 135.24c-6.36-0.96-13-1.52-20-1.52-8.48 0-15.36 6.88-15.36 15.36 0.040 8.52 6.88 15.4 15.36 15.4zM757.323 283.159c-8.48 0-15.36 6.88-15.36 15.36 0 47.16-28.28 67.521-29.48 68.4-6.88 4.84-8.68 14.399-3.88 21.32 4.76 6.92 14.2 8.76 21.2 4.080 1.76-1.2 42.92-29.68 42.92-93.759-0.040-8.52-6.92-15.4-15.4-15.4zM510.802 495.319c-7.56 7.56-19.92 7.6-27.52 0.16l-51.2-52.6c-0.6-1-1.040-2.080-1.88-2.92-1.080-1.080-2.28-1.92-3.56-2.64l-13.32-13.72c-5.92-6.080-15.64-6.2-21.72-0.32-6.080 5.92-6.2 15.64-0.32 21.72l5.6 5.76-1.44 1.4c-11.24 10.88-17.68 26.080-17.68 41.68l0.080 184.197c0 7.68-6.24 13.88-13.88 13.88-7.68 0-13.88-6.24-13.88-13.88v-199.004c0-8.48-6.88-15.36-15.36-15.36s-15.36 6.88-15.36 15.36l-0.040 142.92v94.72c0 7.68-6.24 13.88-13.88 13.88s-13.88-6.24-13.88-13.88v-237.681c0-8.48-6.88-15.36-15.36-15.36s-15.36 6.88-15.36 15.36v188.365c0 7.64-6.24 13.88-13.88 13.88-7.68 0-13.88-6.24-13.88-13.88v-56.080c0-0.72-0.12-1.44-0.2-2.12 0.040-0.72 0.2-1.4 0.2-2.12v-148.081c0-8.48-6.88-15.36-15.36-15.36s-15.36 6.88-15.36 15.36v148.040c0 7.64-6.24 13.88-13.88 13.88s-13.88-6.24-13.88-13.88v-214.477c0-1.96-0.040-4.28-0.080-6.92-0.4-23.2-1.28-71.56 24.32-97.68 12.12-12.36 28.88-18.36 51.2-18.36 8.48 0 15.36-6.88 15.36-15.36s-6.88-15.36-15.36-15.36c-7 0-13.64 0.56-20 1.52v-135.363h140.483v133.683c-3.12 0.040-5.12 0.24-5.6 0.32-8.4 1.16-14.28 8.88-13.119 17.28 1.16 8.32 8.8 14.2 17.12 13.16 2.92-0.32 61.84-4.96 87.72 106.322 5.6 24.080 12.56 54.040 35.84 76.88 0.36 0.32 0.72 0.64 1.080 0.96l17.601 14.36c3.48 3.64 5.4 8.36 5.44 13.44-0.040 5.24-2.080 10.2-5.8 13.92zM367.565 366.879c-1.44-1-29.48-21.4-29.48-68.36 0-8.48-6.88-15.36-15.36-15.36s-15.36 6.88-15.36 15.36c0 64.080 41.16 92.6 42.92 93.759 7.040 4.72 16.6 2.88 21.32-4.16 4.72-7 2.88-16.48-4.040-21.24z" />
<glyph unicode="&#xe92b;" glyph-name="sport-equipmentBasket-empty" d="M819.2 908.8h-614.4c-42 0-76.8-34.8-76.8-76.8 0-33.8 22.52-63.48 53.24-72.72l74.76-748.524c1.040-13.32 12.28-23.56 25.6-23.56h460.8c13.32 0 24.56 10.24 25.6 23.56l74.76 748.564c30.72 10.24 53.24 38.92 53.24 72.72 0 41.96-34.8 76.76-76.8 76.76zM233.482 755.2h82.96l3.080-57.36h-80.88zM241.682 672.24h79.88l4.080-70.64h-76.8zM250.882 576h75.76l4.080-70.64h-73.72zM261.122 479.76h72.72l4.080-70.64h-69.64zM270.322 383.481h68.6l4.080-70.64h-65.52zM351.242 601.603l-4.080 70.64h93.16l1.040-70.64zM441.362 576.003l1.040-70.64h-86l-4.080 70.64zM345.082 697.839l-3.080 57.36h96.24l1.040-57.36zM279.563 288.239h64.52l4.080-70.64h-61.44zM289.803 191.999h60.4l4.080-70.64h-57.32zM305.163 38.399l-6.16 57.36h57.36l3.080-57.36zM358.403 479.763h85l1.040-70.64h-81.92zM364.563 383.484h80.88l1.040-70.64h-77.84zM369.683 288.244h77.84l1.040-70.64h-74.76zM375.803 192.004h73.72l1.040-70.64h-70.64zM385.043 38.404l-3.080 57.36h69.64l1.040-57.36zM545.8 38.404h-67.6l-1.040 57.36h69.64zM547.84 121.364h-70.64l-2.080 70.64h73.72zM548.88 217.604h-74.76l-1.040 70.64h77.84zM550.92 313.844h-78.84l-1.040 69.64h81.92zM552.96 409.084h-81.92l-1.040 70.64h85zM555 505.363h-86l-1.040 70.64h89.080zM557.040 601.603h-90.12l-1.040 70.64h93.2zM559.12 697.843h-94.2l-1.040 57.36h96.24zM638.961 38.407h-67.6l1.040 57.36h69.64zM644.081 121.368h-70.64l1.040 70.64h73.72zM649.201 217.607h-74.76l1.040 70.64h77.84zM655.361 313.847h-78.84l1.040 70.64h80.88zM578.561 409.087l1.040 70.64 86 0.040-4.080-70.64zM676.881 672.245l-4.12-70.64h-90.12l1.040 70.64zM584.721 697.845l1.040 57.36h96.24l-3.080-57.36zM670.721 576.009l-4.080-70.64h-86l1.040 70.64zM718.84 38.409h-54.28l3.080 57.36h57.36zM727.040 121.37h-58.36l4.080 70.64h60.4zM737.28 217.609h-61.44l4.080 70.64h64.52zM746.48 313.849h-65.52l4.080 70.64h68.6zM756.72 409.089h-69.64l4.080 70.64h72.72zM765.96 505.369h-73.72l4.080 70.64h75.76zM775.16 601.608h-76.8l4.080 70.64h79.88zM785.4 697.848h-80.88l3.080 57.36h82.96zM819.201 806.412h-614.4c-14.32 0-25.6 11.28-25.6 25.6s11.28 25.6 25.6 25.6h614.4c14.32 0 25.6-11.28 25.6-25.6s-11.28-25.6-25.6-25.6z" />
<glyph unicode="&#xe92c;" glyph-name="body-hand" d="M592.404 114.401c35.64 0 63.72 10.2 83.48 30.28 41.32 42.080 39.92 117.76 39.28 154.163-0.080 3.96-0.12 7.44-0.12 10.4v325.96c0 16.040-13.040 29.080-29.080 29.080s-29.080-13.040-29.080-29.080v-225.004c0-8.48-6.88-15.36-15.36-15.36s-15.36 6.88-15.36 15.36l-0.040 225.004c0 1.44 0.12 2.88 0.2 4.32-0.12 0.72-0.2 1.44-0.2 2.16v85.2c0 16.040-13.040 29.080-29.080 29.080s-29.080-13.040-29.080-29.080v-286.116c0-8.48-6.88-15.36-15.36-15.36s-15.36 6.88-15.36 15.36v361.124c0 16.040-13.040 29.080-29.080 29.080s-29.080-13.040-29.080-29.080v-361.165c0-8.48-6.88-15.36-15.36-15.36s-15.36 6.88-15.36 15.36l-0.040 217.201v85.2c0 16.040-13.040 29.080-29.080 29.080s-29.080-13.040-29.080-29.080v-279.962c0-21.6-8.88-42.6-24.4-57.6l-7.92-7.68 14.12-14.48c5.92-6.080 5.76-15.8-0.32-21.72s-15.8-5.8-21.72 0.32l-21.040 21.6c-1.68 0.76-3.24 1.8-4.6 3.2-1.28 1.32-2.12 2.88-2.84 4.44l-78.24 80.4c-14.44 14.12-38.24 14-52.799-0.56-7.16-7.16-11.080-16.72-11.040-26.84 0.040-9.92 3.88-19.24 10.84-26.28l27.12-22.079c0.36-0.32 0.72-0.64 1.040-0.96 31.24-30.68 41.76-67.72 52.28-112.957 41.279-177.521 137.923-168.161 141.998-167.639 8.36 0.96 16.040-4.96 17.12-13.28 1.040-8.36-4.72-16-13.080-17.16-0.72-0.080-3.68-0.48-8.44-0.48-2 0-4.4 0.080-7 0.24v-63.039h229.478v67.080c-11.96-2.52-24.68-3.96-38.32-3.96-8.48 0-15.36 6.88-15.36 15.36 0 8.44 6.88 15.32 15.36 15.32zM481.925 151.001c-8.48 0-15.36 6.88-15.36 15.36 0 77.040-47.679 110.080-48.16 110.397-7.040 4.76-8.88 14.28-4.16 21.32 4.76 7.040 14.28 8.88 21.32 4.16 2.52-1.68 61.68-42.68 61.68-135.916 0.040-8.44-6.84-15.32-15.32-15.32z" />
<glyph unicode="&#xe92d;" glyph-name="body-backHead" d="M781.763 472.361c-5.4 0.68-11.4-0.44-18.239-6.080 2.92 19.44 4.52 39.52 4.52 60.040 0 173.24-51.68 321.925-244.316 323-192.676-1.080-244.357-149.76-244.357-323 0-20.56 1.6-40.6 4.52-60.040-6.84 5.64-12.88 6.76-18.239 6.080-37.48-4.72-7.16-57.281 20.12-102.922 26.16-43.8 30.2-75.68 45.72-69.76 5.36 2.040 8.56 8.6 9.76 18.12 57.2-61.52-39.56-292.475-39.56-292.475h444.078s-96.8 231.004-39.56 292.475c1.24-9.56 4.44-16.12 9.76-18.12 15.56-5.92 19.6 25.919 45.72 69.76 27.24 45.64 57.56 98.2 20.080 102.922z" />
<glyph unicode="&#xe92e;" glyph-name="body-knee" d="M938.68 959.64c-331.438 0-702.884-100.76-787.241-170.363-51.16-4.36-87.44-47.679-87.44-106.281v-128c0-33.96 16.6-63.56 42.68-81.92v-515.4c0-11.76 9.56-21.32 21.32-21.32h257.802c7.24 0 14 3.68 17.92 9.76 3.56 5.4 86 134.84 86 267.561 0 56.72-3.44 188.119-32.76 277.32h481.72c11.72 0 21.32 9.56 21.32 21.32v426.004c0 11.88-9.6 21.32-21.32 21.32zM243.845 674.64l-51.84-26.12v-29.44c0-11.76-9.56-21.32-21.32-21.32s-21.32 9.56-21.32 21.32v42.68c0 8.080 4.12 15.44 11.36 19.080l63.8 32c10.52 5.24 23.24 0.92 28.52-9.6 5.24-10.6 1.32-23.4-9.2-28.6z" />
<glyph unicode="&#xe92f;" glyph-name="body-legs" d="M525.998 912.44v-106.885l162.324-217.764s39.6-59.36 0-138.557c-39.6-79.16-122.675-235.561-124.723-281.037-1.96-45.6 9.92-132.721 19.8-150.477 9.92-17.8 61.2-63.4 32.56-63.4-28.6 0-86 37.72-89.96 65.4s-29.68 51.48-41.6 59.4c-11.839 7.88-23.76 51.48 0 63.32 23.76 11.88 39.2 61.4 37.64 97-4 89.72 33.56 176.2 66.241 213.801 32.76 37.6 22.8 69.32-8.84 87.12-31.72 17.84-45.56 27.76-45.56 27.76l-1.96-87.12s5.96-25.76-5.96-47.56c-11.88-21.76-71.24-164.321-87.12-219.72-15.8-55.4-43.56-142.52-27.68-174.203 15.8-31.72 51.44-67.28 71.24-73.279 19.8-5.88 61.36-27.6 23.76-29.6s-69.32 0-89.080 23.68c-19.76 23.8-61.36 37.6-81.16 37.6-19.76 0-23.76 35.68 0 69.32 23.76 33.72 25.76 132.598 25.76 186.122 0 53.52 15.8 110.838 37.6 136.602 21.8 25.72 35.64 67.28 21.8 130.601-13.88 63.32-21.76 154.399-21.76 154.399s-94.12 65.28-79.72 158.321c14.399 93.080 50 126.72 50 126.72h142.397s14-33.64 14-47.56z" />
<glyph unicode="&#xe930;" glyph-name="body-elbow" d="M756.163 126.843c-134.758 0-223.242 57.36-278.764 116.603-8.040 8.6-7.6 22.16 1 30.2 8.56 8.040 22.12 7.6 30.16-1 103.721-110.838 260.157-132.321 452.28-62.72l-0.040 208.077c0 8.080-4.52 15.44-11.72 19.080-45.16 22.52-127.877 36-221.358 36-84.32 0-159.918-10.88-207.442-29.92-36.24-14.52-77.84-32.24-102.963-43.080l-142.52 520.96c-2.6 9.28-11 15.72-20.6 15.72h-126.239c-9.52 0-17.8-6.24-20.44-15.28-1.8-6.16-44.36-152.842-44.36-366.756 0-150.835 22.48-219.238 35.88-260.045 5.32-16.2 9.2-27.88 9.2-37.68 0-10.24-5.84-20.32-12.56-31.92-13.64-23.6-32.44-55.84-7.12-105.236 14.52-28.4 41.2-42.84 79.32-42.84 17.56 0 35.76 2.88 51.88 5.44 13 2 25.24 4 34.48 4 7 0 30.040-12.4 50.36-23.32 72.24-38.84 193.116-103.844 380.283-103.844 148.48 0 237.957 14.6 265.923 43.44 9.080 9.44 10.24 18.28 10.12 22.12l-0.040 140.237c-77.72-26.6-145.879-38.24-204.718-38.24z" />
<glyph unicode="&#xe931;" glyph-name="body-full-female" d="M564.838 851.323c2.16-16.56-5.2-28.56 12.72-42.44 7.36-5.68 14.36-14.12 16.56-31.76 28.56-10.84 33.64-18.92 33.64-106.404-3.48-62.401-4.96-63.16 5.52-124.764 0.92-23.24 1.84-59.12 2.72-82.36 6.96-41.88 15.28-60.72-4.28-83.44-17.56-20.44-16.6-13.2-7.36 8.36 7.96 34.44-0.68 36.76-5.88 17.48-4.32-16.040-9.44-28.72-10.559 1-0.32 8.64-0.72 10.76 10.32 30.6-3.28 31.16-9.76 70.96-16.4 101.52-14.36 70.081-13.52 98.879-11 165.796-6.96-46.080-23.6-100.36-10.96-145.879 28.16-86.12 31.36-102.2 15.041-189.276-6.4-28.28-12.76-57.24-19.16-85.48 4.4-83.68-4.2-121.201-17.76-176.558-9.8-39.999-15.36-72.56-18.84-121.958 8.4-16.76 22.6-23.64 33.88-38.64-24.36-13.119-24.76-10.96-52-10.96-3.44 86.52-6.52 167.475 0.040 254.444 3.080 36.88 1.16 59.76-4.12 95 0.2 22.040 4 149.115-5.96 158.761-7.24-8.72-6.16-136.724-5.96-158.761-5.28-35.24-7.2-58.561-4.12-95.44 6.56-86.96 3.48-167.475 0-254.003-27.199 0-27.64-2.16-52 10.96 11.28 15 25.48 21.88 33.88 38.64-3.52 51.44-9.2 78.88-19.040 119.163-13.4 54.84-21.96 96.080-17.56 179.364-6.4 28.28-12.76 57.24-19.16 85.48-16.321 87.080-13.119 106.762 15.041 192.881 12.64 45.52-3.96 96.2-10.92 142.285 2.52-74.12 4.24-94.84-10.080-164.915-6.64-30.56-14.040-71.28-17.32-102.441 11.64-20.96 9.4-22.56 7.68-35.16-3.68-27-6-15.041-10.32 1.2-5.32 19.88-11.96 19.6-3.96-15.16 12.56-29.28 3.040-22.040-9.8-4.76-15.76 21.2-8 40.2-1.36 79.84 0.92 23.24 2.72 60 3.64 83.28 10.48 61.64 8.080 61.48 4.6 123.884 0 101.28 5.52 92.92 58.080 113.644-5.76 8.6-6.24 29.080-2 36.52 16.4 28.6 6.56 59.96 8.88 82.28 3.080 29.4 17.88 54.24 51.76 54.88 51.24-0.48 51.32-62.28 53.88-106.68z" />
<glyph unicode="&#xe932;" glyph-name="measureTape" d="M480.481 652.8h-480.481v-273.080h102.4v102.4h34.12v-102.4h102.4v102.4h34.12v-102.4h68.28v136.52c0 62 57.8 108.042 139.162 136.561zM699.72 345.6c-128.635 0-263.045 32.88-324.28 94.84l0.040-163.123c0-39.2 39.48-74.48 102.4-99.4v99.4h34.12v-111.196c30.6-9.2 65.16-16.16 102.4-20.4v97.48h34.12v-100.52c16.72-1.12 33.72-1.88 51.2-1.88s34.48 0.76 51.2 1.88v100.52h34.12v-97.44c37.24 4.28 71.76 11.24 102.4 20.4l0.040 111.155h34.12v-99.4c62.92 24.92 102.4 60.2 102.4 99.4v163.123c-61.24-61.96-195.604-94.84-324.28-94.84zM699.72 652.8c-179.077 0-324.28-61.121-324.28-136.52s145.162-136.52 324.28-136.52c179.077 0 324.28 61.121 324.28 136.52s-145.162 136.52-324.28 136.52zM699.72 482.12c-65.96 0-119.48 22.92-119.48 51.2s53.48 51.2 119.48 51.2c65.96 0 119.48-22.92 119.48-51.2 0-28.24-53.48-51.2-119.48-51.2z" />
<glyph unicode="&#xe933;" glyph-name="body-foot" d="M811.837 246.876c-9.8-0.76-19.92-1.52-29.44-1.52-29.24 0-64.6 22.28-113.562 53.12-44.56 28.040-99.96 62.96-168.684 92.32-135.598 57.919-69.84 301.681-51.44 361.277-108.401 51.84-205.681 18.64-238.797 4.12 41-110.080 18.68-277.402 16.52-292.721-0.36-9.68-3.84-85.56-29.92-128.635-15.84-26.16-29.88-87.64-16.8-128.317 4.76-14.8 12.68-24.639 23.52-29.28 32.4-13.84 67.56-10 112.005-5.12 27.080 2.96 57.76 6.36 93.28 6.36 33 0 66.4-5.52 101.72-11.36 66.2-10.92 141.199-23.32 229.202 0.8 2.56 0.72 5.32 0.72 7.92 0.040 24.2-6.28 93.64-17.48 123.679 5.76 9.92 7.6 14.72 18.64 14.72 33.72 0 15.24-3.28 26-9.76 32-12.32 11.4-38.64 9.4-64.16 7.44zM407.521 320.877c-16.72-11.88-34.68-17.76-52-17.76-20.4 0-39.92 8.16-55.52 24.28-28.8 29.72-33.12 75.12-10 105.636 5.12 6.76 14.76 8.080 21.52 2.96s8.080-14.76 2.96-21.52c-16-21.12-8.040-49.601 7.56-65.72 18.32-18.881 43.6-19.96 67.68-2.84 6.92 4.92 16.52 3.28 21.4-3.64 4.92-6.88 3.32-16.48-3.6-21.4z" />
<glyph unicode="&#xe934;" glyph-name="body-full-male" d="M511.242 398.92c-3.4-41.88-6.96-125.757-16.040-165.642-4.76-20.88-10.080-39.76-6.4-64.080 5.44-35.64 3.16-43.68-1.040-86.721-4.16-42.72 10.92-99.76 23.32-135.956 14.16 34.92 28.64 98.36 24.12 135.956-4.76 39.96-3.2 49.72-0.64 88.6 1.48 22.68-3.72 44.8-7.6 62.6-8.24 37.68-10.52 125.563-13.761 166.042-1.72 22.4-0.6 15.84-1.96-0.8zM367.565 431.239c-0.36-11.64 2.28-22.24 2.36-31.76 0.12-14.92-7.96-15-9.6-1.68-0.68 5.64-1.96 17.040-2.72 17.12-1.080-8.96-2.4-18.44-3.080-24.56-2.16-19.28-11.96-18.080-11.080 0.6 0.28 6.12 1.36 25.24 0.4 25.24-2.24-10.96-3.92-19.4-5.28-26.92-3.4-18.72-14.6-19.8-12.16 1.6 0.92 8.080 4.72 26.080 3.6 26.68-3.92-8.52-7.16-15.041-9.8-20.040-8.84-16.64-17.601-10.8-10.8 4.92 5 11.52 10.040 20.24 14.72 30-2.76 1.32-5.72-1.64-8.36-5.24-13.28-17.84-20.32-14.64-10.52 5.48 2.84 5.84 4.56 6.96 7.76 12.92 5.68 14.28 16.88 24.28 21.84 35.88 13.52 31.64 11.6 63.92 18.84 96.4 17.56 60.32 20.6 59.52 24.001 120.484 0.52 66.92 20.64 84.28 80.8 103.639 10 10.72 19.24 11.24 23.2 16.64 2.56 3.52 2.2 9.12 2.040 20.161-5.8 8.36-8.44 14.72-11.24 26.32-8.56 5.92-9.88 13.080-8.4 24.52 3.76 1.88 4.4 1.96 6.68 0.44-11.12 40.24-2.080 66.48 40.641 67.92 44.12-0.68 48-31.64 39.72-68.12 2.44 1.68 3 1.68 6.88-0.28 1.52-11.64 0.080-18.881-8.92-24.88-1.36-9.24-4.96-17.32-10.32-25.2 0.32-10.44 1.080-16.56 2.76-19.64 2.88-5.36 10.12-4.68 20.96-16.040 61.16-21.56 75.72-35.28 85.28-104.479 3.24-58.28 4.24-68.64 19.48-122.962 8.88-31.72 5.6-61.121 17.601-94.88 8.8-15.4 15.64-15.48 23.48-32.92 3.2-5.96 5.64-11.72 8.48-17.601 9.8-20.12 2.76-23.32-10.52-5.48-2.68 3.6-6.32 11.24-9.080 9.92 4.68-9.76 10.48-23.16 15.44-34.68 6.8-15.72-1.96-21.56-10.8-4.92-2.64 5.040-5.88 11.52-9.8 20.040-1.080-0.6 2.68-18.64 3.6-26.68 2.48-21.4-8.76-20.28-12.16-1.6-1.36 7.48-3.040 15.96-5.28 26.92-0.96 0 0.080-19.12 0.4-25.24 0.88-18.68-8.92-19.88-11.080-0.6-0.68 6.12-2 15.6-3.080 24.56-0.8-0.12-2.040-11.52-2.72-17.12-1.64-13.28-9.72-13.2-9.6 1.68 0.080 9.52 1.56 20.12 2.36 31.76 1 14.72-2.2 18.040-1.040 39.040-11.8 38.2-35.12 53.84-40.2 90.8-4.92 35.92-8.96 76.28-22.040 111.8 3.72-61.040-15.6-88.6 0.24-158.802 14.8-65.68 26.84-134.676 11.040-205.199-11.16-49.68-19.4-64.92-13.2-121.324 5.24-47.76 2.32-78.96-19.12-143.923-4.6-14-6.84-24.48-8.96-37.040-3.16-18.8 1.4-29.040 8.080-46.96 3.040-8.2 3.040-12.28-3.040-10.16-0.96 0.32-3.32-1.8-4.32-2.64-4.24-3.72-7.76 1.56-10.4-1.44-4.32-4.96-6.48-1.68-9.12-3.96-7.4-6.36-10.96-0.76-14.28-1.64-8.080-2.16-14.399-0.92-16.92 5.76-1.84-6.2-8.6-8.96-15.32-6.040-3.92 1.72-6.48-5.32-14.48 0.32-5.52 3.88-8-0.68-13.28 5.48-2.040 2.4-4.16-3.32-9.040 1.6-1.44 1.44-2 3-2.96 2.36-1.96-1.32-6.48-3.36-4.24 5.32 4.92 18.84 12.6 33.32 9.24 52-2.6 14.399-5.16 23.359-11.4 40.6-17.68 48.8-17.84 87.24-16.76 129.679 1.56 61 0.64 71.6-12.96 128.041-16.76 69.6-5.12 148.756 9.64 208.804 16.2 65.68-5.76 104.684 1.84 159.078-19.080-42.080-14.080-81.2-24.8-111.36-8.56-24.080-36.44-66-39.24-87.52-1.76-13.16 0.44-30.28 0.12-41z" />
<glyph unicode="&#xe935;" glyph-name="body-head" d="M818.278 476.518l9.52 123.515c0 161.516-154.399 292.362-315.761 292.362-161.516 0-315.761-130.877-315.761-292.403l9.48-123.402c-9.040-2.2-17.2-6.32-24.001-12.16-12.64-10.76-20.6-26.68-20.6-44.56v-60.8c0-32.16 25.88-58.24 58.12-58.44 0-152.484 183.204-297.042 292.68-297.083h0.040c88.96 0 226.642 95.44 275.118 213.043 0.24 0.56 0.4 1.12 0.64 1.68 10.76 26.64 17 54.36 17 82.36 32.12 0.24 58.080 26.28 58.080 58.44v60.8c0 27.48-19 50.36-44.56 56.639z" />
<glyph unicode="&#xe936;" glyph-name="body-wrist" d="M596.603 960c-4.16-0.040-8.6-0.44-13.4-1.24-58.6-21.16-130.355-45.48-187.279-93-10.12-6.56-19.12-15.84-22.6-38.96-13.56-83.72-25.36-178.637-45.24-221.235-140.36-95.039-313.836-213.719-326.359-209.684l-1.68-408.719c116.879 74.28 233.759 158.515 350.679 242.596 48.12 27.88 129.116 98.879 140.759 101.8 41.16 9.6 75.32 20.96 103.076 33.92 22.36 6.6 42.96 9.68 71.64 28.92 94.080 45.92 166.523 114.637 179.722 126.956 11.68 5.84 32.56 10.64 40.24 22.6 5.8 11.6 10.92 24.72 12.56 46.52 2.16 21.36-8.96 39.8-34.84 54.92-39.48-17.4-72.12-30.32-130.161-60.12-6.080-4.64-9.76-9.28-13.16-14l0.12-0.72c4.72-35.4 21.4-56.32 49.040-65.24h0.040l0.040-0.040-0.96-3.16-0.040 0.040-45.76 12.72-0.32 0.48c-19.16 28.16-68.6 60.44-117.524 92.44-0.080 0.040-0.12 0.080-0.2 0.12-22.040 11.080-37.96 32.36-49.601 60.52-11.64 28.2-19 63.44-24.001 102.636l-0.040 0.12-5 23.76c5.84 3.68 30.2-2.88 39.52-4.48-13.56 24.6-17.16 45.32-15.2 63.88 2.12 20.040 10.44 37.48 18.56 54.76l3-1.4c-8.12-17.28-16.2-34.36-18.239-53.72-1.92-18.44 1.68-39.12 16.080-64.24 35.24-31.6 61.92-45.84 108.401-42.72 16.4 1.36 30.48 5.8 38.84 16.12-0.52 11.72-8.24 26.4-18.080 41.84l-0.6-0.24c-17.601 46.84-37.56 85.88-55.2 134.042-11.6 11.839-25.2 21.36-46.8 21.2zM679.683 946.56c-22.68-0.32-26-4.52-32.64-8.040 17.080-46.32 36.32-84.52 53.441-129.72 31.48 15.2 45.48 31.28 69.6 42.92 0.96 17.24-1.040 31.56-3.4 45.48-4.36 26.36-49.92 45.8-70.4 49.040-6.48 0.32-11.96 0.4-16.6 0.32zM770.363 848.2c-22.64-11.28-36.84-27.080-67.92-42.16 9.88-15.48 17.8-30.36 18.16-43.32l0.040-0.56-0.36-0.48c-9.16-11.76-24.56-16.44-41.64-17.84-14.88-1.24-30.96 0.12-46.040 1.6-6.68-2.36-12.88-4.88-16.68-7.96-16.959-31.4 19.96-70.44 46.64-77.040 38.44 23.56 95.44 54.079 160 87.44l0.2-0.36c14.96 53.6-5.52 84.799-52.2 99.44zM823.244 744.479c-63.64-32.88-119.798-62.96-157.88-86.24l-0.24-0.56-6.12-13.48c0.56-13.36-1.76-26.36 4.16-38.4 5.88-11.88 20.080-23.32 54.16-33.16 3.64 5.080 7.68 10.28 14.44 15.4l0.24 0.16c57.68 29.64 90.44 42.64 129.362 59.76 28.44 66.8-6.4 80.36-38.12 96.52z" />
<glyph unicode="&#xe937;" glyph-name="body-ankle" d="M870.4 83.436l-4.080 19.12c-7.52 35.48-39.6 60.76-75.76 60.76h-63.48c-3.4 0-6.84 1.36-8.88 4.76l-121.559 174.797c-27.32 39.6-42.32 86-42.32 133.796 0 24.56 3.4 48.48 10.92 71l100.36 291.482c1.36 4.080 0.68 8.88-2.040 12.28s-6.84 5.48-10.92 5.48h-258.765c-5.48 0-10.92-3.4-12.96-8.88l-68.28-184.996c-21.84-60.080-57.36-115.364-102.4-160.44l-32.76-32.080c-16.4-16.4-25.24-37.56-24.56-60.76 0.68-22.52 10.24-43.68 27.32-59.4 37.56-34.12 79.2-62.12 124.918-83.28 53.24-25.24 99-63.48 132.444-111.278l60.76-86c13.64-19.8 36.2-31.4 60.76-31.4h274.442c11.6 0 22.52 4.76 29.36 13.64 6.8 8.88 9.52 20.48 7.48 31.4zM325.642 514.191l23.88 51.88c3.4 6.84 11.6 9.56 18.44 6.84s9.56-11.6 6.84-18.44l-24.6-51.88c-4.76-10.92-2.040-23.2 7.52-30.72l19.8-12.28c6.16-4.080 8.2-12.28 4.080-19.12-2.72-4.080-6.84-6.16-11.6-6.16-2.72 0-4.76 0.68-7.52 2.040l-20.48 12.96-0.68 0.68c-19.12 14.399-25.919 41.68-15.679 64.2z" />
<glyph unicode="&#xe938;" glyph-name="sport-equipmentBasket" d="M568.248 822.405c-13.373-13.64-15.34-34.099-3.932-45.732 11.418-11.633 31.078-9.626 44.851 4.004l6.687 6.83c0.728 0.787 1.174 1.844 1.174 3.005s-0.446 2.218-1.177 3.008l-34.608 35.305c-0.76 0.743-1.801 1.202-2.949 1.202s-2.189-0.459-2.95-1.203l-7.096-6.42zM740.557 862.515l-2.355 2.406c-0.789 0.749-1.859 1.21-3.036 1.21-0.042 0-0.083-0.001-0.124-0.002h-14.944c-2.402 0.046-4.332 2.004-4.332 4.413 0 0 0 0.001 0 0.001v7.229c0 0 0 0 0 0.001 0 2.409-1.93 4.367-4.327 4.413h-6.691c-2.402 0.046-4.332 2.004-4.332 4.413 0 0.004 0 0.008 0 0.012v7.219c-0.005 2.405-1.933 4.357-4.327 4.403h-6.691c-2.406 0.040-4.342 2.001-4.342 4.413 0 0.004 0 0.008 0 0.011v7.219c0 0 0 0.001 0 0.001 0 2.405-1.924 4.361-4.316 4.412l-7.849-0.010c-2.402 0.046-4.332 2.004-4.332 4.413 0 0 0 0.001 0 0.001v8.427c0 0 0 0 0 0.001 0 2.409-1.93 4.367-4.327 4.413h-6.691c-2.402 0.046-4.332 2.004-4.332 4.413 0 0 0 0.001 0 0.001v14.029c0.002 0.044 0.002 0.096 0.002 0.147 0 1.18-0.444 2.257-1.174 3.072l-3.539 3.6c-2.355 2.406-5.898 1.608-7.086-1.198l-52.306-111.933-3.932-4.014c-0.399-0.399-0.399-1.198 0-1.597l38.943-39.721c0.207-0.185 0.482-0.298 0.783-0.298s0.576 0.113 0.784 0.299l3.931 4.013 109.752 52.951c2.755 1.208 3.144 5.222 1.178 7.219zM622.551 810.772c-0.399-0.41-1.188 0-1.188 0.399-0.389 0.389-0.389 1.198 0.399 1.597l12.186 7.619c0.788 0.399 1.577 0.399 1.966-0.399 0.399-0.799 0.399-1.597-0.389-2.007l-12.974-7.209zM641.823 822.804c-0.389 0.809-0.389 2.007 0.399 2.406l12.974 7.619c0.788 0.399 1.577 0.399 1.976-0.399l0.389-0.399c0.389-0.799 0.389-2.007-0.389-2.406l-13.373-7.219c-0.399-0.41-1.577-0.41-1.976 0.399zM700.047 857.702l1.178-2.406c0.389-0.799 0-1.597-0.788-2.007l-12.595-6.82c-0.788-0.41-1.567 0-1.966 0.799-0.389 0.809-0.788 1.208-1.178 2.017-0.399 0.799-0.399 1.597 0.389 2.406l12.595 7.619c0.788-0.41 1.966-0.799 2.355-1.608zM679.188 845.271c0.401-0.428 0.682-0.973 0.786-1.579 0.402-0.827 0.003-1.626-0.786-2.425l-12.974-7.229c-0.788-0.399-1.577 0-1.976 0.41 0 0.389-0.389 0.389-0.389 0.799-0.389 0.799-0.389 2.007 0.389 2.406l12.984 7.619c0.399 1.208 1.188 0.799 1.966 0zM690.207 874.148c0.399-0.799 1.188-1.597 1.577-2.396 0.389-0.809 0.389-1.608-0.389-2.406l-12.595-8.827c-0.788-0.399-1.567-0.399-1.966 0.399-0.389 0.399-0.788 1.198-1.178 1.597-0.399 0.809-0.399 1.608 0.389 2.406l12.186 9.236c0.799 0.799 1.587 0.399 1.976 0zM670.136 858.522c0.389-0.41 0.788-0.809 1.188-1.608 0.389-0.799 0.389-1.597-0.399-2.406l-12.595-8.817c-0.778-0.41-1.567-0.41-1.956 0.399-0.399 0.399-0.399 0.799-0.799 0.799-0.389 0.809-0.389 1.608 0.399 2.406l12.186 9.236c0.399 0.788 1.188 0.788 1.976-0.010zM649.677 842.875c0-0.399 0.389-0.399 0.389-0.809 0.399-0.799 0.399-2.007-0.389-2.406l-12.186-8.817c-0.788-0.41-1.577-0.41-1.976 0.399-0.788 0.799-0.389 1.597 0.389 2.406l12.196 9.226c0 0.799 1.188 0.799 1.577 0zM629.228 827.228c0.389-0.809 0.389-1.597-0.389-2.007l-12.186-8.827c-0.208-0.188-0.485-0.303-0.788-0.303s-0.581 0.115-0.789 0.304c-0.388 0.409-0.388 1.207 0.001 1.607l11.796 9.226c1.167 0.799 1.966 0.799 2.355 0zM644.567 858.921l-0.788 0.799c-0.788 0.809-0.788 1.608 0 2.406l10.619 11.233c0.788 0.809 1.577 0.809 2.355 0l1.188-1.198 0.389-0.41c0.389-0.389 0.389-1.198 0-1.597l-11.796-11.633c-0.208-0.188-0.485-0.303-0.788-0.303s-0.581 0.115-0.789 0.304c0.001 0.398 0.001 0.398-0.388 0.398zM639.857 851.702l-11.418-11.233c-0.208-0.188-0.485-0.303-0.788-0.303s-0.581 0.115-0.789 0.304l-0.388 0.398c-0.788 0.799-0.788 1.597 0 2.406l10.619 11.233c0.788 0.799 1.577 0.799 2.355 0l0.799-0.819c0-0.389 0-1.188-0.399-1.987zM619.786 836.444c0.207 0.185 0.482 0.298 0.783 0.298s0.576-0.113 0.784-0.299l0.787-0.798c0.399-0.399 0.399-1.198 0-1.597l-11.008-10.834c-0.207-0.185-0.482-0.298-0.783-0.298s-0.576 0.113-0.784 0.299c-0.398 0.398-0.398 1.197 0.001 1.596l10.22 11.643zM676.823 888.197l-11.407-11.223c-0.799-0.809-1.577-0.41-2.355 0l-0.41 0.399-1.167 1.198c-0.788 0.809-0.788 1.608 0 2.406l11.008 11.633c0.788 0.819 1.567 0.819 2.355 0l1.976-2.007c0.399-0.788 0.399-1.997 0-2.406zM613.1 844.073c0.389-0.389 0.788-1.198 0.389-2.007l-9.052-12.032c-0.389-0.399-1.178-0.809-1.567 0-0.399 0.399-0.399 1.208 0 1.608l8.643 12.431c-0.379 0.41 0.799 0.41 1.587 0-0.399 0 0 0 0 0zM617.032 850.094s-0.399 0 0 0c-0.788 0.809-0.788 1.608-0.389 2.406l8.653 12.841c0.389 0.809 1.567 0.809 2.355 0.399 0.399 0 0.399-0.399 0.799-0.399 0.788-0.399 0.788-1.597 0.389-2.406l-9.052-12.431c-1.178-1.208-2.355-1.208-2.755-0.41zM632.371 870.554c-0.389 0.399-0.788 0.399-0.788 0.809-0.788 0.399-0.788 1.597-0.389 2.007l8.653 12.841c0.389 0.799 1.567 0.799 2.355 0.399 0.399-0.41 0.799-0.809 1.577-1.208 0.788-0.399 0.788-1.597 0.389-2.406l-9.052-12.431c-1.167-0.41-2.355-0.41-2.744 0zM659.517 904.653l-9.441-12.841c-0.389-0.809-1.567-0.809-2.355-0.399-0.399 0.399-1.188 0.809-1.577 1.198-0.788 0.41-0.788 1.608-0.389 2.417l9.052 13.23c0.389 0.809 1.567 0.809 2.355 0.41 0.788-0.41 1.577-1.208 2.355-1.608 0.389-0.809 0.389-2.007 0-2.406zM641.024 918.272c0.788-0.389 1.577-0.799 2.355-1.198 0.799-0.399 1.188-1.608 0.799-2.406l-7.875-13.64c-0.389-0.799-1.567-1.198-1.966-0.399-0.788 0.41-1.178 0.809-1.966 1.208s-1.188 1.198-0.788 2.007l7.475 14.039c0 0.799 1.178 0.799 1.966 0.389zM628.838 895.406c0.389-0.389 1.178-0.389 1.567-0.799 0.788-0.41 1.178-1.608 0.389-2.406l-7.475-13.24c-0.389-0.809-1.567-1.208-2.355-0.399-0.389 0-0.389 0.399-0.788 0.399-0.788 0.399-0.788 1.208-0.389 2.007l7.076 13.24c0.399 1.198 1.188 1.608 1.976 1.198zM618.22 870.543l-7.475-13.24c-0.389-0.799-1.577-1.198-2.355-0.399-0.799 0.41-0.799 1.208-0.399 2.007l7.086 13.64c0.389 0.809 1.567 1.208 2.355 0.41l0.389-0.41c0.788-0.41 0.788-1.208 0.399-2.007zM605.235 850.483c0.389-0.399 0.788-1.198 0.389-2.007l-7.475-12.831c-0.389-0.41-0.788-0.41-1.567 0-0.389 0.399-0.389 0.799-0.389 1.198l6.687 12.841c0.778 0.799 1.567 1.198 2.355 0.799zM525.548 250.511c32.727 51.395 68.434 118.374 73.318 130.048l88.289 200.909c1.862 4.317 2.945 9.342 2.945 14.62 0 15.439-9.265 28.715-22.538 34.57-4.572 2.016-9.624 3.135-14.937 3.135-15.307 0-28.445-9.285-34.089-22.53l-82.114-203.834c-4.915-11.674-27.894-84.122-41.82-143.606l-68.332-172.554c-2.222-5.222-4.352-10.465-6.4-15.749l-6.144 3.635c-4.536 1.976-10.076-0.87-12.37-6.339-2.314-5.448 0.451-16.087 19.968-24.504 19.517-8.387 30.679-3.717 32.973 1.72 2.304 5.468 0.481 11.448-4.055 13.414l-6.892 1.956c2.355 5.161 4.608 10.353 6.789 15.585l75.407 169.523zM219.412 670.976c-16.804 8.561-43.602 20.070-48.026 21.75-3.686 1.372-9.933 1.946-13.814-2.54-2.949-3.43-8.335-11.080-9.82-14.909-3.543-9.114-0.154-16.753 7.485-20.654l37.857-19.282c51.64-26.317 84.326-36.741 103.178-95.58l144.64-565.504c8.868-0.983 16.353 1.219 22.641 6.164l-159.529 621.793c-9.349 29.164-57.528 54.958-84.593 68.741h-0.010zM699.709 484.628h-405.268c-27.699 0-50.657-20.449-50.657-45.128 0-19.866 14.858-37.315 35.123-42.742l49.306-439.859c0.696-7.823 8.11-13.834 16.896-13.834h303.944c8.786 0 16.2 6.011 16.896 13.834l49.285 439.9c20.275 6.011 35.123 22.866 35.123 42.732 0 24.658-22.948 45.107-50.657 45.107zM313.354 394.363h54.733l2.028-33.71h-53.35l-3.4 33.71zM318.771 345.62h52.695l2.683-41.513h-50.668l-4.71 41.492zM324.844 289.065h49.971l2.693-41.513h-48.64l-4.024 41.513zM331.602 232.509h47.954l2.703-41.513h-45.947l-4.71 41.513zM337.664 175.933h45.251l2.683-41.513h-43.213l-4.71 41.513zM391.035 304.108l-2.693 41.513h61.45l0.696-41.513h-59.453zM450.468 289.055l0.696-41.503h-56.73l-2.693 41.513h58.726zM386.98 360.653l-2.028 33.71h63.488l0.676-33.71h-62.136zM343.767 119.962h42.547l2.703-41.513h-40.52l-4.731 41.513zM350.525 63.406h39.834l2.693-41.513h-37.816l-4.71 41.513zM360.653-26.849l-4.065 33.69h37.827l2.017-33.69h-35.779zM395.776 232.509h56.064l0.686-41.513h-54.036l-2.714 41.513zM399.831 175.933h53.35l0.686-41.513h-51.343l-2.693 41.513zM403.21 119.972h51.343l0.686-41.523h-49.306l-2.734 41.523zM407.245 63.406h48.64l0.666-41.503h-46.592l-2.714 41.503zM413.338-26.849l-2.028 33.71h45.926l0.696-33.71h-44.595zM519.363-26.849h-44.585l-0.686 33.71h45.926l-0.655-33.71zM520.714 21.893h-46.602l-1.372 41.513h48.63l-0.666-41.503zM521.4 78.449h-49.316l-0.686 41.523h51.343l-1.341-41.523zM522.742 135.014h-52.009l-0.676 40.919h54.036l-1.352-40.919zM524.093 190.976h-54.036l-0.696 41.513h56.084l-1.352-41.513zM525.435 247.562h-56.73l-0.676 41.503h58.747l-1.331-41.503zM526.776 304.108h-59.443l-0.686 41.513h61.481l-1.352-41.513zM528.159 360.663h-62.147l-0.676 33.7h63.488l-0.666-33.7zM580.823-26.849h-44.595l0.686 33.7h45.947l-2.048-33.7zM584.202 21.893h-46.602l0.686 41.513h48.62l-2.724-41.513zM587.581 78.449h-49.316l0.686 41.513h51.343l-2.724-41.513zM591.636 135.014h-52.009l0.696 41.513h53.35l-2.038-41.513zM540.979 190.976l0.686 41.513 56.73 0.010-2.693-41.503-54.723-0.020zM605.839 345.62l-2.724-41.513h-59.443l0.686 41.513h61.481zM545.044 360.663l0.686 33.7h63.488l-2.038-33.71h-62.136zM601.774 289.065l-2.693-41.513h-56.73l0.686 41.513h58.737zM633.518-26.849h-35.809l2.028 33.71h37.837l-4.055-33.71zM638.925 21.893h-38.502l2.703 41.513h39.834l-4.035-41.503zM645.683 78.449h-40.53l2.683 41.513h42.568l-4.731-41.513zM651.745 135.004h-43.213l2.693 41.513h45.24l-4.721-41.513zM658.504 190.976h-45.947l2.683 41.513h47.974l-4.731-41.513zM664.596 247.552h-48.64l2.703 41.513h49.971l-4.035-41.513zM670.659 304.108h-50.657l2.693 41.492h52.685l-4.71-41.503zM677.417 360.653h-53.35l2.028 33.71h54.723l-3.4-33.71zM699.709 424.458h-405.268c-9.441 0-16.886 6.636-16.886 15.053 0 8.397 7.444 15.032 16.896 15.032h405.248c9.441 0 16.896-6.625 16.896-15.043s-7.455-15.043-16.896-15.043zM502.159 85.033l-12.851 35.451-42.056 10.138-26.737-28.846 12.923-41.38 39.926-7.127 28.795 31.764zM482.806 11.756l33.587-5.919 26.972 29.297-6.656 38.676-30.515 7.547-28.948-31.949 5.56-37.652zM388.332 101.652l-17.121-32.973 11.162-35.226 28.109-6.451 17.889 31.293-12.974 41.564-27.064 1.792zM559.206 103.813c-0.205 0.512-0.358 1.024-0.563 1.536-15.596 37.601-52.449 64.102-95.334 64.102-56.975 0-103.322-46.725-103.322-104.151s46.346-104.141 103.322-104.141c56.955 0 103.291 46.725 103.291 104.141 0 13.599-2.662 26.583-7.404 38.502zM455.24-32.932c-9.461 0.807-18.202 2.85-26.407 5.977-0.35 0.167-1.384 0.495-2.377 0.904l0.205 1.413 12.657 0.993-0.184 14.776-28.703 30.239-27.259 6.236 1.638-21.043c-1.024 1.393-2.079 2.755-3.041 4.219-10.241 15.299-16.343 34.121-16.343 54.367 0 0.053 0 0.106 0 0.159 0 0.657 0.287 5.777 0.328 6.371h0.85l17.572 33.833 7.803 27.187c1.3 1.403 2.642 2.765 4.014 4.076 0.829 0.799 7.946 6.943 10.844 9.011l21.074 9.298-0.010 0.061 4.434 1.884 0.041-0.041 12.605 5.171c3.512 0.666 7.066 1.126 10.619 1.403 1.946 0.154 3.901 0.266 5.878 0.307l0.297-0.737-26.040-10.691 12.186-16.343 42.977-10.363 21.135 13.169-13.844 18.278 0.174 0.123c1.536-0.594 3.072-1.198 4.588-1.864 1.833-0.819 3.645-1.7 5.427-2.642l10.455-13.804 28.795-31.928 4.547-0.717c0.461-0.993 0.973-1.976 1.393-3 0.41-0.963 0.717-1.976 1.075-2.949l-6.349 0.993-6.41-25.446 6.758-39.485 7.537-2.048c-0.287-0.87-0.635-1.71-0.952-2.58-7.896-21.616-22.466-39.222-41.179-50.751-1.461-0.879-2.474-1.555-3.529-2.139l3.686 21.709-33.485 5.878-36.106-16.077 0.184-15.421 13.65-6.451-0.41-1.659c-0.922 0.051-1.864 0.061-2.796 0.143zM308.664 644.833c0.020-1.147 0.031-2.324 0.092-3.482 0.041-0.952 0.133-1.884 0.205-2.826 0.061-0.922 0.113-1.843 0.205-2.765 0.123-1.249 0.276-2.488 0.43-3.727l0.225-1.741c0.205-1.423 0.44-2.836 0.696-4.239l0.195-1.106c0.297-1.536 0.614-3.072 0.973-4.588l0.154-0.676c0.389-1.597 0.799-3.185 1.249-4.782l0.102-0.41c0.471-1.628 0.973-3.246 1.505-4.844l0.102-0.307c0.543-1.608 1.126-3.215 1.731-4.792l0.133-0.338c0.594-1.536 1.229-3.072 1.905-4.598l0.246-0.543c1.922-4.322 3.735-7.827 5.719-11.22 0.261-0.402 0.794-1.355 1.347-2.287 0.635-1.004 1.26-1.997 1.915-2.99 3.622-5.521 7.348-10.325 11.415-14.815-2.148 28.097 16.612 67.828 35.085 106.699-40.438-8.274-60.375-24.678-65.628-29.624zM380.928 712.806c-7.526 12.012-29.286 15.38-39.629 15.841-17.348-18.118-28.981-41.834-31.931-68.176l-0.069-0.688c11.858 8.612 34.427 21.146 70.861 27.218 4.516 10.701 4.782 19.374 0.768 25.805zM466.094 670.597c-0.973 2.079-1.946 4.116-2.918 6.144-9.504 1.414-20.632 2.32-31.934 2.506l-0.22-149.737c23.385 1.147 44.715 9.074 62.307 21.838 20.534 18.733-4.81 72.104-27.225 119.27zM476.621 674.406c18.463-38.861 37.222-78.592 35.154-106.557 3.612 3.97 7.025 8.297 10.123 12.855 0.578 0.887 0.875 1.379 1.182 1.86 1.043 1.53 2.219 3.426 3.324 5.368l1.243 2.179c1.29 2.268 2.766 5.203 4.118 8.205l0.542 1.287c1.113 2.399 2.392 5.617 3.529 8.9l0.352 1.135c0.844 2.391 1.822 5.746 2.663 9.155l0.337 1.546c0.358 1.526 0.676 3.052 0.983 4.598l0.205 1.106c0.246 1.403 0.481 2.816 0.686 4.239l0.225 1.741c0.154 1.229 0.307 2.468 0.43 3.717 0.102 0.922 0.143 1.843 0.215 2.765 0.061 0.942 0.154 1.884 0.205 2.836 0.051 1.137 0.061 2.304 0.082 3.451-5.263 4.936-25.344 21.299-65.597 29.614zM541.573 659.937c-0.235 2.308-0.481 4.151-0.775 5.978-3.878 24.214-15.079 45.898-31.255 62.774-10.303-0.503-32.042-3.872-39.579-15.893-4.014-6.42-3.758-15.094 0.758-25.805 36.444-6.062 59.013-18.586 70.871-27.208 0 0.051 0 0.102-0.020 0.154zM419.891 679.27c-11.756-0.215-22.456-1.116-32.154-2.478l-2.939-6.175c-22.415-47.145-47.759-100.526-26.89-119.48 17.261-12.533 38.595-20.46 61.714-21.596l0.269 149.729zM419.891 690.483v74.199c-25.831-1.267-49.213-10.818-67.778-26.029 12.544-1.681 29.901-6.627 38.215-19.877 5.192-8.294 5.96-18.381 2.335-30.034 7.985 0.959 17.425 1.591 26.981 1.748zM431.012 690.483c9.748-0.154 18.811-0.778 27.228-1.741-3.635 11.653-2.877 21.729 2.324 30.034 8.305 13.261 25.672 18.196 38.011 20.050-18.359 15.044-41.737 24.591-67.294 25.845l-0.269-74.178zM545.649 335.78c-6.073 14.331-14.483 26.55-24.877 36.755-9.94 9.802-21.764 17.69-34.881 23.072-14.298 5.637-28.306 8.556-42.53 8.556-14.899 0-29.358-2.918-43.151-8.98-13.783-5.837-26.010-14.336-36.465-25.098-9.72-10.021-17.549-21.939-22.871-35.138-5.545-13.182-8.641-27.657-8.699-42.848 0-15.034 2.888-29.616 8.898-43.522 6.074-14.327 14.484-26.542 24.876-36.745 9.94-9.803 21.764-17.69 34.881-23.072 14.063-5.648 28.071-8.556 42.54-8.556 14.889 0 29.348 2.918 43.141 8.98 13.783 5.837 26.010 14.336 36.465 25.098 9.72 10.021 17.549 21.939 22.871 35.138 5.606 14.188 8.484 28.309 8.484 42.881 0.205 14.787-2.908 29.594-8.684 43.479zM533.197 242.524c-9.613-3.118-20.675-4.916-32.156-4.916-0.107 0-0.214 0-0.321 0-27.56 0-54.47 10.527-75.381 30.259l-10.895 10.301c-6.892-3.809-12.902-8.284-18.463-13.896l15.565-17.029c25.805-28.017 65.833-39.69 102.298-29.819-4.659-4.485-9.564-8.294-14.889-11.889-3.44-0.43-7.421-0.676-11.459-0.676-0.036 0-0.072 0-0.108 0-32.642 0.006-62.050 13.868-82.659 36.027l-14.748 16.658c-3.71-4.818-7.111-10.257-9.963-16.016-0.482-0.788-0.482-1.013-0.707-1.463l18.688-22.2c14.084-16.691 35.015-27.22 58.405-27.22 2.457 0 4.886 0.116 7.284 0.343-6.318-1.298-13.228-2.032-20.308-2.041-0.034 0-0.066 0-0.099 0-10.774 0-21.146 1.719-30.857 4.899-7.87 4.834-15.15 11.028-21.209 18.277l-15.671 18.511c-1.331-4.26-2.232-8.745-2.673-13.23-0.225 0.225-0.666 0.676-1.116 0.901-2.447 2.243-4.659 4.7-6.666 7.168 1.331 6.728 3.338 13.23 6.226 19.282 3.812 8.428 8.582 15.677 14.304 22.054 0.161 0.36 0.456 0.733 0.807 1.044 0.229 0.208 0.229 0.208 0.444 0.444 0.451 0.666 1.116 1.116 1.556 1.792 6.903 7.198 14.986 13.197 23.95 17.701l0.729 0.229c7.469 3.756 16.133 6.644 25.248 8.215 0.762 0.079 1.212 0.079 1.438 0.305 1.387 5.058 2.269 10.901 2.445 16.92l-3.11-0.106c-40.356-1.934-74.328-27.332-88.713-62.772-0.682-0.009-0.908 0.892-1.348 1.578-1.119 2.513-2.256 5.638-3.197 8.847 17.645 35.994 52.789 59.526 92.817 61.318l3.328 0.215c-0.557 7.633-2.058 14.728-4.396 21.43l-4.268-0.582c-0.485 0.008-1.058 0.013-1.631 0.013-38.847 0-72.695-21.405-90.393-53.064l-0.269 1.934c0 5.171 0.451 10.322 1.116 15.483 21.555 28.242 55.603 45.281 91.382 44.605h0.451c-2.884 5.731-5.992 10.65-9.513 15.234l-2.499 0.003c-30.249 3.144-59.156-12.114-74.281-38.328 0.225 0.676 0.451 1.126 0.666 1.802 5.242 12.854 12.457 23.863 21.389 33.218l0.617 0.635c12.338 7.613 27.293 12.124 43.301 12.124 0.653 0 1.305-0.008 1.954-0.022-4.098 3.584-8.537 6.847-13.275 9.659-0.072 0.408 0.298 0.56 0.691 0.65 3.138 1.346 6.251 2.473 9.364 3.374 5.571-3.809 10.67-8.294 15.36-13.455 0.43-0.44 0.881-1.116 1.321-1.556 2.662-3.144 5.12-6.287 7.332-9.871 2.898-4.475 5.345-8.97 7.342-13.896 0-0.225 0.215-0.225 0.215-0.451 1.116-2.908 2.232-5.837 3.123-8.745 1.926-5.92 3.272-12.793 3.763-19.901l0.015-0.948c0.215-2.693 0.215-5.386 0-8.284-0.198-7.178-1.243-14.026-3.040-20.562 4.811-2.98 9.706-5.888 14.816-8.366l1.106 2.918c13.783 37.437 4.659 79.36-23.347 107.387h2.447c3.338 0 6.666-0.225 10.004-0.451 26.061-30.044 33.618-71.967 19.61-109.855l-1.106-3.133c6.676-2.253 13.568-3.809 20.685-4.26l1.782 4.035c15.565 34.97 10.445 76.452-12.902 106.711 0.225 0 0.666-0.225 0.891-0.225 5.335-2.253 10.445-4.7 15.124-7.844 17.347-30.925 19.794-69.274 5.12-102.216l-0.225-0.44c5.786 0.215 11.336 1.331 16.896 2.693l1.116 2.243c15.35 28.928 11.11 64.563-10.895 88.771 1.782-1.567 3.789-3.144 5.56-4.925 9.082-8.897 16.496-19.456 21.757-31.19 1.113-5.251 1.602-10.55 1.602-15.964 0-12.531-2.619-24.45-7.34-35.24 5.341 3.044 10.451 5.952 14.895 9.547v-1.126c0-3.359-0.225-6.717-0.451-10.086-5.233-3.39-11.246-6.413-17.586-8.762-1.307-0.433-2.187-0.648-2.863-0.874-3.789-1.341-7.782-2.253-11.796-2.918-4.613-0.847-9.922-1.331-15.343-1.331-0.002 0-0.004 0-0.007 0h-0.44c-3.113 0-6.226 0.215-9.114 0.44-7.436 0.826-14.215 2.401-20.665 4.673 0.42-0.198 0.195 0.027-0.020 0.027-2.673 0.891-5.12 2.028-7.557 3.144-6.87 3.208-12.786 6.871-18.212 11.129-0.24-0.151-0.68-0.151-0.906-0.377h-0.44c-6.5-0.982-12.34-2.626-17.855-4.896l8.732-7.648c28.918-27.566 70.492-35.185 107.182-20.398 0-0.225-0.215-0.451-0.215-0.666-1.137-3.86-2.918-7.455-4.69-11.039zM841.912 806.584l-1.823 0.922-1.833 0.819zM748.093 788.326s1.751-13.998 3.83-39.67c2.068-25.682-5.181-50.268-10.516-61.788-5.325-11.52-10.107-41.349-10.107-41.349l-3.359-56.914 18.565-8.714 41.134 39.137s19.64 22.907 24.945 34.376c5.335 11.52 19.374 32.922 40.233 47.821 7.646 5.662 18.275 13.084 29.055 20.299s8.106 6.694 9.683 10.093c1.546 3.348 6.769 23.552 6.769 23.552s2.898 15.124-3.42 26.317c-6.328 11.203-20.275 33.413-43.889 44.503l-3.052 1.434c-23.613 11.090-49.459 7.578-62.044 5.263s-22.221-14.275-22.221-14.275-12.001-17.019-13.548-20.408c-1.567-3.318-2.058-9.687-2.058-9.687zM756.285 789.248s-0.819 2.324 0.41 5.601c2.13 0.41 12.595 2.243 27.771 0.85-1.352-5.99-2.683-11.725-3.942-17.203-10.414-2.857-18.412-6.932-21.473-8.581-0.4 3.233-0.774 5.667-1.204 8.081l-1.571 11.242zM833.004 772.352c-5.062 3.542-11.005 6.238-17.412 7.725 0.578 2.627 1.499 5.269 2.482 7.891 6.103-2.304 12.411-5.181 18.842-8.827-1.311-2.253-2.611-4.547-3.912-6.799zM842.936 775.629c5.888-3.707 11.848-8.049 17.848-13.138-2.683-3.799-5.53-7.916-8.591-12.298-3.727 6.84-8.288 12.688-13.65 17.688 1.516 2.751 2.98 5.342 4.393 7.758zM808.294 781.261c-1.977 0.194-4.273 0.304-6.596 0.304-5.221 0-10.313-0.558-15.217-1.618 1.885 5.369 3.196 10.377 4.404 15.015 6.328-0.922 13.292-2.396 20.654-4.731-1.034-2.796-2.109-5.816-3.246-8.98zM742.81 665.242c19.128 41.308 20.111 73.39 16.732 101.222 4.209 2.222 11.366 5.55 20.029 8.018-20.91-88.852-30.095-108.8-30.095-108.8l-5.939-23.859 2.263-3.144 6.001 24.044c8.622 20.48 23.48 73.533 34.068 113.326 4.537 1.046 9.746 1.646 15.095 1.646 2.094 0 4.166-0.092 6.213-0.272-11.376-30.292-28.558-73.853-50.175-118.048-2.765-7.639-4.311-12.001-5.755-24.054-0.041-0.543-0.133-0.973-0.164-1.434-7.127 4.884-15.944 14.776-8.274 31.345zM758.057 630.088s-2.929 1.075-6.472 3.42c0.041 0.102 24.34 39.25 62.259 142.776 3.379-0.799 6.769-1.823 10.076-3.41 2.376-1.116 4.741-2.519 7.035-4.188-54.589-96.133-68.792-140.186-68.792-140.186l-0.215-0.276c-1.543 0.618-2.823 1.24-4.054 1.939zM794.491 640.963c-8.673-18.678-24.289-15.759-31.918-12.913 0.389 0.379 0.778 0.85 1.28 1.352 8.192 8.847 10.516 12.841 14.541 19.886 19.835 45.332 42.056 86.764 57.989 114.872 4.792-4.567 9.216-10.424 13.148-17.818-23.429-33.782-54.323-79.421-64.379-99.287l-14.438-20.081 3.82 0.256 14.377 19.907s9.247 19.968 63.519 93.358c2.888-6.39 5.427-13.701 7.547-22.067-23.122-15.206-46.561-36.588-65.485-77.466zM884.603 735.754c-1.782-3.799-4.475-4.7-4.475-4.7l-10.414-6.492c-2.202-1.331-4.434-2.714-6.656-4.127-2.118 9.12-4.843 17.055-8.268 24.605 3.65 3.668 7.131 8.327 10.756 13.16 6.584-6.042 13.087-12.974 19.446-21.053l1.864 4.035c-5.906 7.474-12.048 14.139-18.656 20.312 4.637 6.394 9.594 12.968 14.908 19.91 18.248-21.975 3.072-42.24 1.505-45.65zM877.978 786.893c-0.348-0.492-6.124-8.571-14.756-20.849-6.042 5.202-12.104 9.626-18.074 13.425 6.437 11.209 10.755 18.289 15.169 25.303l-5.84-1.013c8.663-5.12 20.183-13.947 20.183-13.947 1.167-0.993 2.284-1.956 3.318-2.918zM832.922 810.957l7.168-3.461 7.24-3.308s1.956 2.458 1.946 2.253c0.819-0.348 1.802-0.84 2.796-1.372-4.506-7.578-8.837-14.93-12.933-22.006-6.687 3.789-13.271 6.769-19.558 9.134 2.724 7.66 5.55 15.667 8.397 23.982 2.109-0.717 3.994-1.495 5.386-2.232 0.174 0.102-0.43-2.99-0.43-2.99zM821.053 818.391c-0.307-1.034-3.092-9.81-8.079-23.962-5.93 1.954-13.023 3.607-20.312 4.65 2.689 13.076 5.055 22.261 5.649 24.616 1.966-0.205 3.994-0.481 6.124-0.922 0 0 8.458-1.935 16.62-4.383zM790.794 823.921c-1.874-8.448-3.645-16.486-5.356-24.064-16.538 1.372-27.269-1.034-27.32-1.014 2.765 7.434 10.23 24.136 32.676 25.068zM468.224 20.48l261.038 563.917 12.165-5.724-261.028-563.917zM453.765-1.843c-0.010 0.041-0.061 0.072-0.072 0.102-0.010-0.082 0.041-0.102 0.072-0.102zM472.187-6.41l7.578 17.715-14.541 7.158-8.806-18.401-1.413 0.328s-0.963-2.089-1.229-2.222c9.421-11.448 18.616-8.090 18.616-8.090l0.42 2.253-0.614 1.26z" />
</font>
</defs>
</svg>
